<?xml version="1.0" encoding="utf-8"?>
<!-- Generator: Adobe Illustrator 16.0.0, SVG Export Plug-In . SVG Version: 6.00 Build 0)  -->
<!DOCTYPE svg PUBLIC "-//W3C//DTD SVG 1.1//EN" "http://www.w3.org/Graphics/SVG/1.1/DTD/svg11.dtd">
<svg version="1.1" id="Layer_1" xmlns="http://www.w3.org/2000/svg" xmlns:xlink="http://www.w3.org/1999/xlink" x="0px" y="0px"
	 width="85.039px" height="85.039px" viewBox="0 0 85.039 85.039" enable-background="new 0 0 85.039 85.039" xml:space="preserve">
<path fill-rule="evenodd" clip-rule="evenodd" d="M20.032,37.9c6.845,0,13.017,0,19.188,0c11.758,0,23.516,0.014,35.273-0.011
	c2.555-0.006,4.485,0.877,5.243,3.45c0.902,3.063-1.395,5.782-5.015,5.815c-7.747,0.074-15.494,0.047-23.242,0.047
	c-9.661,0-19.322-0.014-28.984-0.014c-0.61,0-1.22,0.084-2.193,0.154c0.542,0.832,0.857,1.441,1.285,1.957
	c4.889,5.891,9.793,11.768,14.696,17.645c1.679,2.014,2.35,4.139,0.601,6.443c-2.007,2.643-5.389,2.455-7.893-0.521
	C22.719,65.4,16.497,57.893,10.259,50.4c-1.34-1.611-2.691-3.215-3.983-4.863c-1.558-1.99-1.568-4.116,0.013-6.027
	c7.783-9.409,15.592-18.797,23.479-28.119c1.701-2.011,4.544-2.061,6.392-0.477c2.03,1.741,2.373,4.37,0.578,6.58
	c-4.939,6.083-9.983,12.082-14.979,18.119C21.307,36.159,20.902,36.745,20.032,37.9z"/>
</svg>
