<?xml version="1.0" encoding="utf-8"?>
<!-- Generator: Adobe Illustrator 16.0.0, SVG Export Plug-In . SVG Version: 6.00 Build 0)  -->
<!DOCTYPE svg PUBLIC "-//W3C//DTD SVG 1.1//EN" "http://www.w3.org/Graphics/SVG/1.1/DTD/svg11.dtd">
<svg version="1.1" id="Layer_1" xmlns="http://www.w3.org/2000/svg" xmlns:xlink="http://www.w3.org/1999/xlink" x="0px" y="0px"
	 width="85.039px" height="85.039px" viewBox="0 0 85.039 85.039" enable-background="new 0 0 85.039 85.039" xml:space="preserve">
<path fill-rule="evenodd" clip-rule="evenodd" fill="#FFFFFF" d="M3.843,39.619c0-4.011,0-8.022,0-12.034
	c0.091-0.208,0.216-0.408,0.268-0.626c0.997-4.157,3.575-6.678,7.794-7.402c1.228-0.21,2.501-0.203,3.754-0.209
	c4.393-0.023,8.786-0.009,13.347-0.009c0-0.843-0.033-1.516,0.006-2.185c0.243-4.175,3.269-7.321,7.326-7.418
	c4.118-0.099,8.242-0.09,12.36-0.002c3.635,0.079,6.485,2.628,7.138,6.236c0.189,1.052,0.213,2.133,0.33,3.369
	c0.589,0,1.148,0,1.709,0c4.406,0,8.813-0.038,13.22,0.026c1.183,0.016,2.399,0.209,3.532,0.55c3.796,1.145,5.63,4.042,6.568,7.669
	c0,4.011,0,8.022,0,12.034c-0.959,1.781-1.945,3.549-2.867,5.35c-0.412,0.806-0.979,1.671-0.993,2.516
	c-0.086,5.842-0.025,11.686-0.051,17.527c-0.027,6.396-4.041,10.361-10.449,10.361c-16.153,0.003-32.307,0.002-48.46,0.001
	c-6.637-0.001-10.609-3.932-10.623-10.53c-0.013-5.843,0.008-11.685-0.02-17.528c-0.003-0.593-0.04-1.425-0.407-1.735
	C5.44,43.986,4.57,41.856,3.843,39.619z M36.721,47.48c0.876-2.876,2.555-4.788,5.711-4.831c3.248-0.045,4.961,1.903,5.906,4.829
	c8.085-1.225,16.11-2.4,24.12-3.675c3.117-0.496,4.888-2.699,4.928-5.856c0.035-2.808,0.018-5.615,0.007-8.422
	c-0.018-4.033-2.371-6.379-6.426-6.387c-6.302-0.011-12.604-0.002-18.907-0.002c-12.719,0-25.438-0.009-38.157,0.005
	c-3.609,0.003-6.156,2.299-6.238,5.691c-0.076,3.15-0.068,6.303-0.003,9.453c0.058,2.83,1.931,4.946,4.741,5.504
	c0.953,0.188,1.916,0.325,2.877,0.47C22.396,45.332,29.512,46.399,36.721,47.48z M11.485,47.507c0,0.751,0,1.311,0,1.872
	c0,5.153-0.01,10.308,0.003,15.462c0.012,4.45,2.333,6.746,6.798,6.748c16.148,0.002,32.297,0.002,48.446,0
	c4.478-0.002,6.805-2.289,6.817-6.73c0.014-5.211,0.006-10.422-0.002-15.633c-0.002-0.535-0.076-1.071-0.125-1.712
	c-8.495,1.282-16.782,2.533-25.019,3.775c-0.623,4.608-2.451,6.62-5.875,6.624c-3.438,0.004-5.32-2.058-5.886-6.624
	C28.364,50.043,20.029,48.791,11.485,47.507z M52.102,19.246c0.558-3.981-0.921-5.749-4.729-5.753c-3.261-0.003-6.521-0.004-9.781,0
	c-3.765,0.005-5.347,1.967-4.605,5.753C39.357,19.246,45.736,19.246,52.102,19.246z M44.438,50.392c0.002,0,0.005,0,0.007,0
	c0-0.74,0.047-1.483-0.011-2.22c-0.093-1.153-0.812-1.748-1.929-1.741c-1.12,0.005-1.852,0.618-1.899,1.77
	c-0.06,1.421-0.199,2.885,0.079,4.252c0.134,0.658,1.072,1.453,1.781,1.623c1.054,0.252,1.828-0.498,1.957-1.635
	C44.5,51.766,44.438,51.075,44.438,50.392z"/>
</svg>
