<?xml version="1.0" encoding="utf-8"?>
<!-- Generator: Adobe Illustrator 16.0.0, SVG Export Plug-In . SVG Version: 6.00 Build 0)  -->
<!DOCTYPE svg PUBLIC "-//W3C//DTD SVG 1.1//EN" "http://www.w3.org/Graphics/SVG/1.1/DTD/svg11.dtd">
<svg version="1.1" id="Layer_1" xmlns="http://www.w3.org/2000/svg" xmlns:xlink="http://www.w3.org/1999/xlink" x="0px" y="0px"
	 width="85.039px" height="85.039px" viewBox="0 0 85.039 85.039" enable-background="new 0 0 85.039 85.039" xml:space="preserve">
<path fill="#FFFFFF" d="M54.535,31.328c2.426-0.696,4.515-1.502,6.675-1.821c0.983-0.146,2.567,0.35,3.093,1.104
	c2.582,3.709,5.002,7.547,7.234,11.478c0.471,0.83,0.271,2.431-0.229,3.339c-0.951,1.723-2.347,3.2-3.662,4.918
	c-2.643-1.75-5.153-1.984-7.146,0.846c-2.701-2.211-5.167-2.838-6.401-1.082c-1.57,2.23-3.195,4.189-5.375,5.854
	c-0.785,0.599-0.67,2.375-1.011,3.806c-3.261,1.861-3.603,3.053-1.555,7.369c-2.945,0.24-5.722,0.541-8.506,0.639
	c-0.618,0.021-1.26-0.674-1.89-1.039c0.463-0.527,0.839-1.199,1.411-1.555c1.167-0.726,2.483-1.215,3.649-1.941
	c0.475-0.297,0.721-0.958,1.071-1.454c-0.604-0.048-1.311-0.324-1.792-0.104c-2.161,0.985-4.205,2.242-6.402,3.123
	c-0.937,0.375-2.315,0.42-3.195-0.002c-1.732-0.832-1.744-2.566-0.089-3.611c2.136-1.35,4.435-2.438,6.585-3.766
	c0.794-0.492,1.362-1.349,2.034-2.037c-0.933,0.137-1.971,0.062-2.779,0.457c-2.479,1.207-4.844,2.646-7.308,3.889
	c-0.782,0.395-1.833,0.805-2.58,0.586c-0.89-0.262-1.95-1.059-2.24-1.873c-0.203-0.57,0.561-1.86,1.237-2.305
	c3.076-2.016,6.294-3.814,9.409-5.774c0.542-0.341,0.836-1.075,1.244-1.628c-0.722,0.041-1.582-0.161-2.144,0.16
	c-3.531,2.012-7.002,4.129-10.48,6.232c-1.356,0.82-2.717,1.146-4.038,0.027c-1.349-1.143-1.167-3.18,0.535-4.301
	c7.304-4.807,14.635-9.572,22.027-14.24c0.643-0.405,1.934-0.274,2.697,0.086c2.979,1.404,5.876,2.986,8.787,4.531
	c1.76,0.934,3.555,1.393,5.025-0.319c1.537-1.792,0.836-3.533-0.508-5.172C56.762,34.335,55.695,32.852,54.535,31.328z"/>
<path fill="#FFFFFF" d="M17.8,49.748c-1.535-1.439-3.002-2.902-4.569-4.253c-1.167-1.005-1.167-1.916-0.351-3.167
	c2.677-4.112,5.302-8.259,7.859-12.445c0.856-1.402,1.757-1.544,3.25-1.03c1.153,0.397,2.59,0.56,3.749,0.253
	c6.828-1.806,13.64-1.998,20.436-0.046c1.401,0.403,2.883,1.171,3.879,2.204c1.746,1.81,3.225,3.902,4.641,5.994
	c0.418,0.618,0.25,1.631,0.35,2.464c-0.843,0.014-1.825,0.316-2.507-0.009c-3.041-1.45-6.03-3.019-8.97-4.665
	c-1.826-1.022-3.37-0.897-5.12,0.256c-7.36,4.854-14.786,9.61-22.19,14.397C18.2,49.736,18.107,49.719,17.8,49.748z"/>
<path fill="#FFFFFF" d="M21.451,24.915c-0.341,0.72-0.544,1.296-0.862,1.801C17.33,31.9,14.022,37.054,10.797,42.26
	c-1.087,1.753-2.288,2.007-3.984,0.882c-6.11-4.056-6.104-2.953-2.152-9.2c2.536-4.011,5.05-8.035,7.603-12.036
	c1.36-2.132,2.139-2.287,4.305-0.946c1.171,0.726,2.366,1.426,3.461,2.255C20.598,23.644,20.972,24.326,21.451,24.915z"/>
<path fill="#FFFFFF" d="M70.658,20.509c0.667,0.625,1.389,1.082,1.809,1.733c3.354,5.211,6.637,10.468,9.973,15.691
	c0.969,1.517,0.797,2.696-0.758,3.675c-6.277,3.949-5.498,4.307-9.271-1.742c-2.024-3.246-4.05-6.491-6.124-9.706
	c-3.564-5.529-3.421-4.978,2.002-8.366C68.986,21.359,69.736,21.006,70.658,20.509z"/>
<path fill="#FFFFFF" d="M56.73,50.663c0.766,0.666,1.553,1.136,2.045,1.819c1.793,2.483,3.481,5.043,5.225,7.564
	c0.874,1.266,0.893,2.473-0.354,3.449c-1.317,1.033-2.478,0.523-3.338-0.699c-1.853-2.631-3.729-5.253-5.41-7.992
	c-0.435-0.709-0.41-1.908-0.16-2.75C54.896,51.521,55.868,51.23,56.73,50.663z"/>
<path fill="#FFFFFF" d="M52.55,55.825c0.368,0.292,1.14,0.687,1.603,1.31c1.369,1.836,2.609,3.768,3.912,5.652
	c0.869,1.253,0.924,2.471-0.348,3.428c-1.305,0.98-2.474,0.504-3.343-0.719c-1.416-1.992-2.853-3.977-4.136-6.055
	C49.205,57.768,50.314,55.781,52.55,55.825z"/>
<path fill="#FFFFFF" d="M69.814,56.898c-0.922,0.976-1.41,1.9-2.116,2.121c-0.701,0.219-1.935,0.004-2.388-0.508
	c-1.201-1.35-2.248-2.893-3.055-4.508c-0.302-0.607-0.018-1.838,0.455-2.402c0.4-0.478,1.871-0.806,2.159-0.51
	C66.566,52.834,68.055,54.779,69.814,56.898z"/>
<path fill="#FFFFFF" d="M48.559,61.73c1.358,0.031,4.262,4.082,3.85,5.373c-0.432,1.352-2.117,1.812-3.113,0.701
	c-0.957-1.066-1.794-2.289-2.447-3.564C46.225,63.025,47.227,61.702,48.559,61.73z"/>
</svg>
