<?xml version="1.0" encoding="utf-8"?>
<!-- Generator: Adobe Illustrator 16.0.0, SVG Export Plug-In . SVG Version: 6.00 Build 0)  -->
<!DOCTYPE svg PUBLIC "-//W3C//DTD SVG 1.1//EN" "http://www.w3.org/Graphics/SVG/1.1/DTD/svg11.dtd">
<svg version="1.1" id="Layer_1" xmlns="http://www.w3.org/2000/svg" xmlns:xlink="http://www.w3.org/1999/xlink" x="0px" y="0px"
	 width="85.039px" height="85.039px" viewBox="0 0 85.039 85.039" enable-background="new 0 0 85.039 85.039" xml:space="preserve">
<path fill-rule="evenodd" clip-rule="evenodd" fill="#EBE717" d="M54.535,31.328c2.426-0.696,4.515-1.502,6.675-1.821
	c0.983-0.146,2.568,0.35,3.092,1.104c2.583,3.709,5.002,7.547,7.235,11.478c0.471,0.83,0.272,2.431-0.229,3.339
	c-0.951,1.722-2.346,3.2-3.662,4.917c-2.642-1.749-5.153-1.983-7.145,0.846c-2.701-2.21-5.167-2.837-6.401-1.082
	c-1.57,2.231-3.195,4.19-5.376,5.855c-0.785,0.599-0.669,2.375-1.01,3.805c-3.261,1.862-3.602,3.053-1.555,7.369
	c-2.945,0.241-5.722,0.541-8.506,0.639c-0.618,0.022-1.26-0.673-1.89-1.038c0.463-0.528,0.839-1.2,1.411-1.555
	c1.167-0.726,2.483-1.215,3.649-1.942c0.475-0.296,0.721-0.958,1.071-1.454c-0.604-0.048-1.311-0.324-1.792-0.104
	c-2.161,0.985-4.205,2.242-6.402,3.123c-0.937,0.375-2.315,0.42-3.195-0.002c-1.732-0.833-1.744-2.566-0.089-3.612
	c2.136-1.349,4.435-2.437,6.585-3.766c0.794-0.492,1.362-1.348,2.034-2.037c-0.933,0.138-1.971,0.062-2.779,0.457
	c-2.479,1.208-4.844,2.646-7.308,3.889c-0.782,0.395-1.833,0.805-2.58,0.586c-0.89-0.261-1.95-1.059-2.24-1.873
	c-0.203-0.57,0.561-1.86,1.237-2.304c3.076-2.016,6.294-3.815,9.409-5.775c0.542-0.341,0.836-1.075,1.244-1.628
	c-0.722,0.041-1.582-0.161-2.144,0.16c-3.531,2.012-7.002,4.13-10.48,6.233c-1.356,0.82-2.717,1.146-4.038,0.027
	c-1.349-1.143-1.167-3.179,0.535-4.3c7.304-4.808,14.635-9.573,22.027-14.241c0.643-0.405,1.933-0.274,2.697,0.086
	c2.979,1.404,5.876,2.986,8.788,4.531c1.759,0.934,3.554,1.393,5.024-0.319c1.538-1.792,0.837-3.533-0.507-5.172
	C56.762,34.335,55.696,32.852,54.535,31.328z"/>
<path fill-rule="evenodd" clip-rule="evenodd" fill="#EBE717" d="M17.8,49.748c-1.535-1.439-3.002-2.903-4.569-4.253
	c-1.167-1.005-1.167-1.916-0.351-3.167c2.677-4.112,5.302-8.259,7.859-12.445c0.856-1.402,1.757-1.544,3.25-1.03
	c1.153,0.397,2.59,0.56,3.749,0.253c6.828-1.806,13.64-1.998,20.436-0.046c1.401,0.403,2.882,1.171,3.879,2.204
	c1.746,1.81,3.224,3.902,4.641,5.994c0.418,0.618,0.249,1.631,0.349,2.464c-0.843,0.014-1.825,0.316-2.507-0.009
	c-3.041-1.45-6.03-3.019-8.97-4.665c-1.826-1.022-3.369-0.897-5.119,0.256c-7.36,4.854-14.786,9.61-22.19,14.397
	C18.2,49.737,18.107,49.718,17.8,49.748z"/>
<path fill-rule="evenodd" clip-rule="evenodd" fill="#EBE717" d="M21.451,24.915c-0.341,0.72-0.544,1.296-0.862,1.801
	C17.33,31.9,14.022,37.054,10.797,42.26c-1.087,1.753-2.288,2.008-3.984,0.883c-6.11-4.056-6.104-2.953-2.152-9.2
	c2.536-4.011,5.05-8.035,7.603-12.036c1.36-2.132,2.139-2.287,4.305-0.946c1.171,0.726,2.366,1.426,3.461,2.255
	C20.598,23.644,20.972,24.326,21.451,24.915z"/>
<path fill-rule="evenodd" clip-rule="evenodd" fill="#EBE717" d="M70.658,20.509c0.667,0.625,1.389,1.082,1.809,1.733
	c3.354,5.211,6.637,10.468,9.972,15.691c0.969,1.517,0.798,2.696-0.757,3.675c-6.277,3.948-5.498,4.307-9.271-1.742
	c-2.024-3.246-4.05-6.491-6.124-9.706c-3.565-5.529-3.421-4.978,2.002-8.366C68.986,21.359,69.737,21.006,70.658,20.509z"/>
<path fill-rule="evenodd" clip-rule="evenodd" fill="#EBE717" d="M56.731,50.663c0.765,0.666,1.552,1.136,2.045,1.819
	c1.793,2.484,3.481,5.044,5.224,7.565c0.874,1.265,0.892,2.472-0.353,3.449c-1.318,1.034-2.478,0.524-3.338-0.699
	c-1.853-2.631-3.729-5.253-5.411-7.993c-0.434-0.708-0.41-1.907-0.16-2.75C54.897,51.522,55.868,51.231,56.731,50.663z"/>
<path fill-rule="evenodd" clip-rule="evenodd" fill="#EBE717" d="M52.55,55.825c0.368,0.292,1.139,0.687,1.603,1.31
	c1.368,1.836,2.608,3.768,3.912,5.652c0.868,1.253,0.924,2.471-0.348,3.428c-1.305,0.98-2.474,0.504-3.343-0.719
	c-1.416-1.992-2.853-3.976-4.135-6.055C49.205,57.767,50.315,55.781,52.55,55.825z"/>
<path fill-rule="evenodd" clip-rule="evenodd" fill="#EBE717" d="M69.814,56.898c-0.922,0.976-1.409,1.901-2.116,2.122
	c-0.701,0.219-1.934,0.003-2.388-0.508c-1.201-1.35-2.248-2.893-3.054-4.508c-0.302-0.608-0.018-1.838,0.455-2.402
	c0.401-0.478,1.871-0.806,2.159-0.51C66.566,52.834,68.055,54.779,69.814,56.898z"/>
<path fill-rule="evenodd" clip-rule="evenodd" fill="#EBE717" d="M48.559,61.731c1.358,0.03,4.261,4.081,3.849,5.372
	c-0.431,1.352-2.117,1.812-3.113,0.701c-0.957-1.066-1.794-2.289-2.448-3.564C46.225,63.026,47.227,61.702,48.559,61.731z"/>
</svg>
