<?xml version="1.0" encoding="utf-8"?>
<!-- Generator: Adobe Illustrator 16.0.0, SVG Export Plug-In . SVG Version: 6.00 Build 0)  -->
<!DOCTYPE svg PUBLIC "-//W3C//DTD SVG 1.1//EN" "http://www.w3.org/Graphics/SVG/1.1/DTD/svg11.dtd">
<svg version="1.1" id="Layer_1" xmlns="http://www.w3.org/2000/svg" xmlns:xlink="http://www.w3.org/1999/xlink" x="0px" y="0px"
	 width="85.039px" height="85.039px" viewBox="0 0 85.039 85.039" enable-background="new 0 0 85.039 85.039" xml:space="preserve">
<path d="M274.778,25.402c3.2-3.248,6.06-6.169,8.938-9.066c4.752-4.782,9.517-9.554,14.283-14.321
	c2.461-2.461,5.785-2.605,8.061-0.373c2.3,2.255,2.289,5.583-0.174,8.067c-8.928,8.998-17.881,17.968-26.858,26.917
	c-2.5,2.49-5.706,2.491-8.188,0.006c-9.031-9.045-18.037-18.117-27.025-27.205c-2.225-2.248-2.161-5.719,0.031-7.837
	c2.235-2.161,5.576-2.126,7.836,0.137c7.277,7.29,14.541,14.592,21.795,21.904C273.928,24.089,274.249,24.673,274.778,25.402z"/>
<path fill="#0C0C0C" d="M41.778,48.402c3.2-3.248,6.06-6.169,8.938-9.067c4.752-4.782,9.517-9.554,14.283-14.321
	c2.461-2.461,5.785-2.605,8.061-0.373c2.3,2.255,2.289,5.583-0.174,8.067c-8.928,8.998-17.881,17.969-26.858,26.918
	c-2.5,2.49-5.706,2.49-8.188,0.006c-9.031-9.045-18.037-18.118-27.025-27.205c-2.225-2.248-2.161-5.719,0.031-7.837
	c2.235-2.161,5.576-2.126,7.836,0.137c7.277,7.29,14.541,14.592,21.795,21.905C40.928,47.09,41.249,47.674,41.778,48.402z"/>
</svg>
