<?xml version="1.0" encoding="utf-8"?>
<!-- Generator: Adobe Illustrator 16.0.0, SVG Export Plug-In . SVG Version: 6.00 Build 0)  -->
<!DOCTYPE svg PUBLIC "-//W3C//DTD SVG 1.1//EN" "http://www.w3.org/Graphics/SVG/1.1/DTD/svg11.dtd">
<svg version="1.1" id="Layer_1" xmlns="http://www.w3.org/2000/svg" xmlns:xlink="http://www.w3.org/1999/xlink" x="0px" y="0px"
	 width="85.039px" height="85.039px" viewBox="0 0 85.039 85.039" enable-background="new 0 0 85.039 85.039" xml:space="preserve">
<path fill-rule="evenodd" clip-rule="evenodd" fill="#F0E91A" d="M42.331,56.332c3.2-3.248,6.059-6.169,8.938-9.067
	c4.753-4.781,9.517-9.553,14.284-14.32c2.461-2.461,5.785-2.605,8.06-0.373c2.3,2.255,2.29,5.583-0.174,8.067
	c-8.927,8.998-17.881,17.969-26.858,26.917c-2.5,2.491-5.706,2.492-8.188,0.007c-9.032-9.046-18.038-18.117-27.026-27.205
	c-2.224-2.248-2.161-5.719,0.031-7.837c2.236-2.161,5.576-2.126,7.836,0.137c7.277,7.29,14.542,14.592,21.796,21.905
	C41.481,55.019,41.802,55.604,42.331,56.332z"/>
</svg>
