<?xml version="1.0" encoding="utf-8"?>
<!-- Generator: Adobe Illustrator 16.0.0, SVG Export Plug-In . SVG Version: 6.00 Build 0)  -->
<!DOCTYPE svg PUBLIC "-//W3C//DTD SVG 1.1//EN" "http://www.w3.org/Graphics/SVG/1.1/DTD/svg11.dtd">
<svg version="1.1" id="Layer_1" xmlns="http://www.w3.org/2000/svg" xmlns:xlink="http://www.w3.org/1999/xlink" x="0px" y="0px"
	 width="85.039px" height="85.039px" viewBox="0 0 85.039 85.039" enable-background="new 0 0 85.039 85.039" xml:space="preserve">
<path fill="#989997" d="M55.421,2.356c1.483,0.711,3.117,1.218,4.421,2.174c2.896,2.125,4.374,5.044,4.331,8.74
	c-0.071,6.141-0.194,12.288,0.03,18.421c0.222,6.045-5.516,11.155-10.986,10.915c-7.498-0.329-15.021-0.123-22.532-0.031
	c-0.934,0.012-2.081,0.497-2.753,1.149c-4.617,4.482-9.133,9.068-13.935,13.875c0-5.134,0-9.97,0-14.888
	c-5.493-0.695-8.624-3.87-10.121-8.858c0-7.636,0-15.272,0-22.909c1.342-4.385,4.221-7.233,8.591-8.591
	C26.785,2.356,41.103,2.356,55.421,2.356z"/>
<path fill="#989997" d="M84.415,58.913c-1.036,3.758-3.16,6.628-6.828,8.157c-0.976,0.406-2.051,0.568-3.224,0.882
	c0,4.784,0,9.586,0,14.731c-0.709-0.651-1.182-1.057-1.621-1.494c-4.051-4.047-8.127-8.066-12.119-12.17
	c-0.921-0.946-1.854-1.269-3.135-1.261c-7.396,0.052-14.79,0.032-22.185,0.023C28.24,67.773,23.458,62.52,24.169,55.51
	c0.054-0.533,0.374-1.13,0.752-1.521c1.777-1.848,3.567-3.69,5.467-5.408c0.538-0.485,1.462-0.754,2.211-0.762
	c6.917-0.057,13.834-0.021,20.752-0.035c8.897-0.018,15.996-7.104,16.015-15.97c0.003-1.364,0-2.728,0-4.07
	c6.545-1.058,12.552,0.526,15.048,8.62C84.415,43.879,84.415,51.396,84.415,58.913z"/>
</svg>
