<?xml version="1.0" encoding="utf-8"?>
<!-- Generator: Adobe Illustrator 16.0.0, SVG Export Plug-In . SVG Version: 6.00 Build 0)  -->
<!DOCTYPE svg PUBLIC "-//W3C//DTD SVG 1.1//EN" "http://www.w3.org/Graphics/SVG/1.1/DTD/svg11.dtd">
<svg version="1.1" id="Layer_1" xmlns="http://www.w3.org/2000/svg" xmlns:xlink="http://www.w3.org/1999/xlink" x="0px" y="0px"
	 width="85.039px" height="85.039px" viewBox="0 0 85.039 85.039" enable-background="new 0 0 85.039 85.039" xml:space="preserve">
<g>
	<g>
		<path fill="#FFFFFF" d="M25.462,63.486c0.167-2.479,0.044-5.02,0.558-7.424c1.358-6.365,6.203-10.487,12.701-10.869
			c3.659-0.213,7.351-0.243,11.007-0.01c7.691,0.487,13.043,6.088,13.319,13.783c0.12,3.324-0.045,6.658,0.067,9.983
			c0.043,1.306-0.522,1.794-1.606,2.22c-6.583,2.588-13.448,3.338-20.39,2.592c-4.715-0.507-9.346-1.777-14.025-2.648
			c-1.208-0.227-1.556-0.832-1.502-2.002c0.087-1.867,0.023-3.742,0.023-5.614C25.565,63.493,25.514,63.49,25.462,63.486z"/>
		<path fill="#FFFFFF" d="M22.843,62.994c-5.508-1.208-10.542-2.281-15.55-3.469c-0.427-0.102-0.952-0.963-0.959-1.478
			c-0.054-3.737-0.14-7.483,0.074-11.211c0.411-7.143,5.648-12.526,12.857-13.087c3.704-0.288,7.449-0.051,10.671-0.051
			c1.471,3.342,2.809,6.382,4.189,9.522C25.922,46.408,22.363,53.084,22.843,62.994z"/>
		<path fill="#FFFFFF" d="M54.146,43.118c0.978-1.653,2.006-3.067,2.686-4.633c0.648-1.495,0.934-3.147,1.313-4.5
			c3.941,0,7.856-0.387,11.664,0.088c6.166,0.769,10.864,6.098,11.25,12.324c0.234,3.799,0.172,7.623,0.101,11.433
			c-0.011,0.629-0.622,1.567-1.194,1.815c-4.425,1.918-9.087,2.762-14.259,2.803C66.328,53.271,62.85,46.523,54.146,43.118z"/>
		<path fill="#FFFFFF" d="M33.403,33.123c0.048-6.139,4.833-10.82,11.023-10.786c6.086,0.034,10.816,4.871,10.786,11.029
			c-0.03,6.093-4.933,10.896-11.032,10.805C38.018,44.079,33.354,39.298,33.403,33.123z"/>
		<path fill="#FFFFFF" d="M24.882,32.781c-5.767,0.021-10.543-4.542-10.866-10.354c-0.304-5.46,3.887-10.616,9.194-11.312
			c6.132-0.802,11.282,2.795,12.518,8.576c0.371,1.735,0.069,2.877-1.206,4.199c-1.299,1.347-2.262,3.127-3.009,4.874
			c-1.222,2.855-2.395,3.854-5.595,4.016C25.575,32.796,25.228,32.781,24.882,32.781z"/>
		<path fill="#FFFFFF" d="M62.066,32.809c-0.264-0.025-1.027-0.047-1.771-0.181c-1.5-0.271-2.49-0.811-2.816-2.669
			c-0.527-2.998-2.25-5.497-4.727-7.322c-1.061-0.783-1.232-1.55-0.99-2.791c1.141-5.829,6.258-9.49,12.381-8.743
			c5.435,0.663,9.696,5.856,9.338,11.379C73.104,28.324,68.371,32.799,62.066,32.809z"/>
	</g>
</g>
</svg>
