<?xml version="1.0" encoding="utf-8"?>
<!-- Generator: Adobe Illustrator 16.0.0, SVG Export Plug-In . SVG Version: 6.00 Build 0)  -->
<!DOCTYPE svg PUBLIC "-//W3C//DTD SVG 1.1//EN" "http://www.w3.org/Graphics/SVG/1.1/DTD/svg11.dtd">
<svg version="1.1" id="Layer_1" xmlns="http://www.w3.org/2000/svg" xmlns:xlink="http://www.w3.org/1999/xlink" x="0px" y="0px"
	 width="85.039px" height="85.039px" viewBox="0 0 85.039 85.039" enable-background="new 0 0 85.039 85.039" xml:space="preserve">
<g>
	<g>
		<path fill-rule="evenodd" clip-rule="evenodd" fill="#EBE717" d="M25.462,63.487c0.167-2.479,0.044-5.02,0.558-7.425
			c1.358-6.364,6.203-10.487,12.701-10.868c3.659-0.214,7.352-0.244,11.008-0.011c7.691,0.488,13.042,6.088,13.319,13.784
			c0.12,3.324-0.045,6.658,0.067,9.983c0.043,1.306-0.522,1.794-1.606,2.22c-6.583,2.588-13.448,3.338-20.39,2.592
			c-4.715-0.507-9.346-1.777-14.025-2.649c-1.208-0.226-1.556-0.832-1.502-2.001c0.087-1.868,0.023-3.743,0.023-5.615
			C25.565,63.493,25.514,63.49,25.462,63.487z"/>
		<path fill-rule="evenodd" clip-rule="evenodd" fill="#EBE717" d="M22.843,62.994c-5.508-1.208-10.542-2.281-15.55-3.468
			c-0.427-0.102-0.952-0.963-0.959-1.478c-0.054-3.737-0.14-7.483,0.074-11.211c0.411-7.143,5.648-12.526,12.857-13.087
			c3.704-0.288,7.449-0.051,10.671-0.051c1.471,3.342,2.809,6.382,4.189,9.521C25.922,46.408,22.363,53.084,22.843,62.994z"/>
		<path fill-rule="evenodd" clip-rule="evenodd" fill="#EBE717" d="M54.146,43.118c0.978-1.653,2.006-3.067,2.686-4.633
			c0.648-1.495,0.933-3.147,1.313-4.5c3.941,0,7.856-0.387,11.663,0.088c6.167,0.769,10.865,6.098,11.25,12.323
			c0.235,3.8,0.173,7.623,0.101,11.433c-0.011,0.629-0.622,1.567-1.194,1.815c-4.425,1.918-9.087,2.762-14.259,2.804
			C66.328,53.271,62.85,46.524,54.146,43.118z"/>
		<path fill-rule="evenodd" clip-rule="evenodd" fill="#EBE717" d="M33.403,33.123c0.048-6.139,4.833-10.82,11.023-10.786
			c6.085,0.034,10.816,4.871,10.786,11.029c-0.03,6.093-4.932,10.896-11.032,10.805C38.018,44.079,33.354,39.298,33.403,33.123z"/>
		<path fill-rule="evenodd" clip-rule="evenodd" fill="#EBE717" d="M24.882,32.781c-5.767,0.02-10.543-4.542-10.866-10.355
			c-0.304-5.46,3.887-10.616,9.194-11.311c6.132-0.802,11.282,2.795,12.518,8.576c0.371,1.735,0.069,2.877-1.206,4.199
			c-1.299,1.347-2.262,3.127-3.009,4.874c-1.222,2.855-2.395,3.854-5.595,4.016C25.575,32.796,25.228,32.781,24.882,32.781z"/>
		<path fill-rule="evenodd" clip-rule="evenodd" fill="#EBE717" d="M62.066,32.809c-0.263-0.025-1.027-0.047-1.771-0.181
			c-1.5-0.271-2.491-0.811-2.817-2.669c-0.527-2.998-2.25-5.497-4.726-7.322c-1.061-0.783-1.232-1.55-0.99-2.791
			c1.141-5.829,6.257-9.49,12.38-8.743c5.435,0.663,9.697,5.856,9.339,11.379C73.104,28.324,68.371,32.799,62.066,32.809z"/>
	</g>
</g>
</svg>
