<?xml version="1.0" encoding="utf-8"?>
<!-- Generator: Adobe Illustrator 16.0.0, SVG Export Plug-In . SVG Version: 6.00 Build 0)  -->
<!DOCTYPE svg PUBLIC "-//W3C//DTD SVG 1.1//EN" "http://www.w3.org/Graphics/SVG/1.1/DTD/svg11.dtd">
<svg version="1.1" id="Layer_1" xmlns="http://www.w3.org/2000/svg" xmlns:xlink="http://www.w3.org/1999/xlink" x="0px" y="0px"
	 width="85.039px" height="85.039px" viewBox="0 0 85.039 85.039" enable-background="new 0 0 85.039 85.039" xml:space="preserve">
<g>
	<path fill-rule="evenodd" clip-rule="evenodd" fill="#FFFFFF" d="M67.309,34.418c1.403-1.411,2.808-2.822,4.212-4.233
		c0.56-0.563,1.118-1.128,1.683-1.685c2.805-2.763,7.112-2.8,9.808-0.088c2.738,2.755,2.704,7.03-0.101,9.845
		c-5.086,5.103-10.178,10.196-15.28,15.281c-0.346,0.345-0.478,0.685-0.476,1.167c0.015,6.196,0.016,12.393,0.008,18.589
		c-0.004,3.551-2.332,6.321-5.809,6.925c-0.398,0.069-0.81,0.078-1.215,0.078c-14.562,0.004-29.123,0.007-43.684,0.002
		c-3.986-0.001-6.982-2.999-6.983-6.982c-0.003-20.525-0.002-41.051,0-61.577c0-3.992,2.988-6.995,6.967-6.996
		c12.509-0.004,25.018,0.001,37.526-0.005c1.984-0.001,3.661,0.693,5.058,2.092c1.997,2,3.991,4.005,5.999,5.995
		c1.438,1.424,2.148,3.132,2.145,5.156c-0.008,5.229-0.002,10.457-0.002,15.685c0,0.228,0,0.456,0,0.684
		C67.212,34.373,67.26,34.396,67.309,34.418z M49.008,9.729c-0.217-0.013-0.35-0.028-0.482-0.028c-10.67,0-21.34-0.001-32.01,0.005
		c-1.354,0-2.075,0.764-2.076,2.165c-0.001,20.43-0.002,40.859,0,61.288c0,1.448,0.729,2.174,2.184,2.174
		c14.446,0.002,28.892,0.003,43.337,0.001c1.523,0,2.24-0.723,2.241-2.242c0.001-4.474,0.001-8.947,0.001-13.42
		c0-0.199,0-0.399,0-0.63c-0.391,0.156-0.689,0.293-0.998,0.396c-2.953,0.988-5.911,1.96-8.859,2.961
		c-1.032,0.35-1.961,0.239-2.742-0.525c-0.805-0.788-0.899-1.74-0.545-2.788c0.961-2.841,1.911-5.685,2.837-8.536
		c0.246-0.76,0.638-1.383,1.204-1.944c2.915-2.891,5.807-5.804,8.717-8.699c0.285-0.283,0.395-0.57,0.395-0.968
		c-0.012-5.131-0.008-10.263-0.008-15.395c0-0.207,0-0.413,0-0.661c-0.313,0-0.543,0-0.773,0c-3.215,0-6.429,0.001-9.643,0
		c-1.779,0-2.777-0.991-2.779-2.763c-0.002-3.214,0-6.429,0-9.644C49.008,10.247,49.008,10.016,49.008,9.729z M73.801,40.236
		c-0.861-0.864-1.74-1.745-2.52-2.527c-3.344,3.33-6.719,6.691-10.029,9.989c0.828,0.831,1.697,1.704,2.521,2.531
		C67.105,46.908,70.47,43.555,73.801,40.236z M54.023,9.756c0,2.715,0,5.413,0,8.119c2.742,0,5.442,0,8.334,0
		c-0.277-0.536-0.412-1.05-0.736-1.381c-2.052-2.107-4.143-4.177-6.229-6.252C55.023,9.875,54.578,9.668,54.023,9.756z
		 M77.483,36.623c0.117-0.109,0.261-0.233,0.394-0.368c0.598-0.604,1.23-1.18,1.779-1.827c0.613-0.722,0.512-1.818-0.15-2.485
		c-0.657-0.664-1.73-0.82-2.428-0.207c-0.803,0.707-1.492,1.542-2.186,2.273C75.726,34.85,76.592,35.724,77.483,36.623z
		 M57.482,51.26c-0.268,0.285-0.695,0.557-0.846,0.938c-0.495,1.265-0.891,2.568-1.364,3.977c1.173-0.391,2.215-0.78,3.282-1.077
		c0.718-0.2,1.202-0.641,1.61-1.147C59.27,53.052,58.391,52.17,57.482,51.26z"/>
	<path fill-rule="evenodd" clip-rule="evenodd" fill="#FFFFFF" d="M36.142,26.71c5.073,0,10.147-0.003,15.219,0.002
		c1.301,0.001,2.242,0.706,2.543,1.871c0.346,1.343-0.49,2.723-1.844,3.017c-0.281,0.061-0.576,0.08-0.865,0.08
		c-10.048,0.004-20.098,0.004-30.147-0.002c-0.363,0-0.742-0.034-1.087-0.139c-1.139-0.346-1.842-1.487-1.684-2.663
		c0.165-1.222,1.132-2.118,2.355-2.159c0.619-0.021,1.239-0.007,1.859-0.007C27.042,26.71,31.592,26.71,36.142,26.71z"/>
	<path fill-rule="evenodd" clip-rule="evenodd" fill="#FFFFFF" d="M31.742,40.454c-3.638,0-7.275,0.006-10.913-0.003
		c-1.699-0.004-2.845-1.385-2.517-3c0.196-0.962,0.989-1.744,1.959-1.902c0.285-0.046,0.578-0.054,0.867-0.054
		c7.063-0.002,14.125-0.004,21.188,0.004c0.383,0,0.783,0.019,1.145,0.128c1.187,0.356,1.871,1.513,1.685,2.767
		c-0.174,1.172-1.191,2.053-2.442,2.057C39.056,40.461,35.399,40.454,31.742,40.454z"/>
	<path fill-rule="evenodd" clip-rule="evenodd" fill="#FFFFFF" d="M31.678,49.254c-3.619,0.001-7.238,0.01-10.856-0.003
		c-1.691-0.006-2.847-1.417-2.508-3.017c0.227-1.068,1.143-1.862,2.25-1.947c0.116-0.008,0.232-0.007,0.348-0.007
		c7.199-0.001,14.397-0.003,21.596,0c1.418,0,2.484,0.851,2.651,2.099c0.212,1.577-0.897,2.866-2.509,2.871
		C38.992,49.262,35.335,49.254,31.678,49.254z"/>
	<path fill-rule="evenodd" clip-rule="evenodd" fill="#FFFFFF" d="M31.76,53.081c3.657,0.001,7.314-0.005,10.971,0.005
		c1.076,0.003,1.96,0.646,2.313,1.627c0.353,0.978,0.06,2.07-0.729,2.74c-0.547,0.465-1.191,0.598-1.891,0.596
		c-3.463-0.007-6.927-0.003-10.391-0.003c-3.715-0.001-7.431,0.007-11.146-0.004c-1.747-0.005-2.904-1.375-2.575-3.012
		c0.236-1.17,1.232-1.945,2.535-1.947C24.485,53.077,28.123,53.081,31.76,53.081z"/>
	<path fill-rule="evenodd" clip-rule="evenodd" fill="#FFFFFF" d="M44.905,66.56c2.226,0,4.452-0.016,6.678,0.006
		c1.163,0.012,2.1,0.826,2.349,1.963c0.242,1.101-0.318,2.276-1.371,2.736c-0.377,0.165-0.82,0.249-1.235,0.251
		c-4.277,0.018-8.555,0.017-12.833,0.007c-1.416-0.003-2.476-0.876-2.632-2.125c-0.162-1.283,0.57-2.422,1.797-2.749
		c0.293-0.078,0.612-0.087,0.919-0.088c2.11-0.007,4.219-0.004,6.329-0.004C44.905,66.558,44.905,66.559,44.905,66.56z"/>
</g>
</svg>
