<?xml version="1.0" encoding="utf-8"?>
<!-- Generator: Adobe Illustrator 16.0.0, SVG Export Plug-In . SVG Version: 6.00 Build 0)  -->
<!DOCTYPE svg PUBLIC "-//W3C//DTD SVG 1.1//EN" "http://www.w3.org/Graphics/SVG/1.1/DTD/svg11.dtd">
<svg version="1.1" id="Layer_1" xmlns="http://www.w3.org/2000/svg" xmlns:xlink="http://www.w3.org/1999/xlink" x="0px" y="0px"
	 width="85.039px" height="85.039px" viewBox="0 0 85.039 85.039" enable-background="new 0 0 85.039 85.039" xml:space="preserve">
<g>
	<path fill-rule="evenodd" clip-rule="evenodd" fill="#FFFFFF" d="M32.968,22.73c-1.854-3.588-3.944-7.188-5.586-10.982
		c-0.952-2.201-0.764-4.589,1.381-6.383c1.961-1.642,4.068-1.444,5.982-0.253c4.97,3.093,9.862,1.611,14.81,0.088
		c2.383-0.733,4.969-2.045,7.044,0.285c2.012,2.259,0.767,4.893-0.222,7.141c-1.451,3.3-3.306,6.422-4.954,9.556
		c3.512,3.457,7.665,6.856,10.968,10.942c6.879,8.509,11.845,17.98,11.339,29.382c-0.422,9.492-8.67,17.854-18.152,18.16
		c-8.683,0.281-17.389,0.276-26.073,0.003c-9.386-0.294-17.638-8.508-18.172-17.842c-0.653-11.418,4.309-20.893,11.109-29.456
		C25.659,29.319,29.738,25.951,32.968,22.73z M42.662,77.255c0-0.024,0-0.048,0-0.071c3.927,0,7.867,0.2,11.779-0.039
		c10.233-0.627,17.41-9.563,15.515-19.585c-2.616-13.827-10.056-24.726-21.82-32.244c-3.256-2.08-8.194-2.061-11.732,0.254
		C25.731,32.555,18.9,42.538,15.581,54.809c-3.335,12.327,4.207,22.181,16.982,22.437C35.928,77.312,39.295,77.255,42.662,77.255z
		 M53.801,8.045c-1.076,0.196-1.729,0.239-2.331,0.436c-6.174,2.02-12.337,3.856-18.474-0.116c-0.15-0.097-0.439-0.216-0.517-0.15
		c-0.626,0.527-1.801,1.194-1.727,1.637c0.638,3.792,2.366,7.226,5.425,9.472c1.5,1.1,3.936,0.988,5.97,1.271
		c1.19,0.166,2.435,0.14,3.628-0.013c0.759-0.097,1.672-0.396,2.162-0.928C50.882,16.46,52.91,12.767,53.801,8.045z"/>
	<path fill-rule="evenodd" clip-rule="evenodd" fill="#FFFFFF" d="M42.739,68.694c-0.113-0.064-1.408-0.549-1.365-0.83
		c0.369-2.419-1.403-2.612-2.94-3.259c-2.859-1.202-4.07-3.65-4.652-6.767c1.396-0.234,2.728-0.458,4.121-0.692
		c0.88,1.241,1.756,2.477,2.633,3.711c0.229-0.053,0.458-0.104,0.687-0.157c0-2.076,0.119-4.164-0.078-6.221
		c-0.054-0.561-0.972-1.21-1.634-1.513c-3.312-1.51-5.202-4.013-5.069-7.653c0.13-3.553,2.092-5.853,5.57-6.853
		c0.488-0.141,0.772-0.909,1.266-1.137c0.717-0.33,1.54-0.431,2.317-0.63c0.248,2.073,2.389,1.64,3.411,2.602
		c1.455,1.369,2.611,3.055,4.07,4.82c-3.197,1.15-5.313,1.103-7.152-1.51c0,1.961-0.127,3.937,0.082,5.876
		c0.057,0.529,1.057,1.109,1.738,1.392c4.145,1.723,5.586,3.614,5.528,7.446c-0.057,3.808-1.938,6.09-5.74,7.739
		C44.52,65.498,43.977,67.021,42.739,68.694z M44.979,54.266c-0.319,0.171-0.64,0.345-0.96,0.515c0,2.088,0,4.176,0,6.266
		c0.275,0.147,0.55,0.296,0.825,0.443c0.688-1.188,1.894-2.366,1.914-3.564C46.777,56.715,45.62,55.486,44.979,54.266z
		 M41.025,48.127c0-2.01,0-3.766,0-5.675C38.187,44.514,38.183,46.054,41.025,48.127z"/>
</g>
</svg>
