<?xml version="1.0" encoding="utf-8"?>
<!-- Generator: Adobe Illustrator 16.0.0, SVG Export Plug-In . SVG Version: 6.00 Build 0)  -->
<!DOCTYPE svg PUBLIC "-//W3C//DTD SVG 1.1//EN" "http://www.w3.org/Graphics/SVG/1.1/DTD/svg11.dtd">
<svg version="1.1" id="Layer_1" xmlns="http://www.w3.org/2000/svg" xmlns:xlink="http://www.w3.org/1999/xlink" x="0px" y="0px"
	 width="85.039px" height="85.039px" viewBox="0 0 85.039 85.039" enable-background="new 0 0 85.039 85.039" xml:space="preserve">
<g>
	<path fill-rule="evenodd" clip-rule="evenodd" d="M55.216,8.546c-2.279,2.274-4.313,4.381-6.454,6.373
		c-0.413,0.384-1.25,0.433-1.892,0.435c-8.455,0.039-16.91,0.016-25.365,0.061c-5.691,0.031-8.383,2.817-8.382,8.522
		c0.005,13.393,0.002,26.786-0.001,40.179c-0.003,4.658,2.993,7.715,7.607,7.715c13.79,0.003,27.58,0.003,41.37-0.007
		c4.407-0.003,7.388-2.945,7.399-7.334c0.021-8.738,0.031-17.479-0.007-26.218c-0.005-1.164,0.301-2.03,1.148-2.84
		c1.879-1.799,3.676-3.683,5.747-5.777c0.085,0.718,0.173,1.119,0.173,1.518c-0.026,11.916-0.222,23.836-0.036,35.749
		c0.111,7.155-6.634,12.151-12.28,12.043c-15.315-0.291-30.641-0.098-45.963-0.102c-7.06,0-12.101-5.031-12.106-12.104
		C6.162,51.267,6.159,35.773,6.168,20.282c0.003-6.611,5.111-11.786,11.72-11.81c11.918-0.042,23.834-0.025,35.752-0.028
		C54.069,8.444,54.497,8.498,55.216,8.546z"/>
	<path fill-rule="evenodd" clip-rule="evenodd" d="M61.534,12.238c3.695,3.728,7.36,7.424,10.852,10.944
		c-8.054,8.173-16.128,16.365-24.178,24.534c-3.664-3.765-7.277-7.478-10.827-11.126C45.245,28.661,53.376,20.462,61.534,12.238z"/>
	<path fill-rule="evenodd" clip-rule="evenodd" d="M74.697,21.529c-3.97-3.818-7.687-7.392-11.604-11.159
		c1.304-1.215,2.353-2.248,3.462-3.21c1.591-1.379,2.849-1.483,4.345-0.096c2.493,2.311,4.912,4.712,7.256,7.174
		c1.1,1.155,0.84,2.567-0.112,3.718C77.002,19.216,75.808,20.354,74.697,21.529z"/>
	<path fill-rule="evenodd" clip-rule="evenodd" d="M45.901,49.64c-4.817,1.375-9.835,2.806-15.167,4.326
		c1.536-5.353,2.977-10.374,4.466-15.57C38.819,42.198,42.322,45.879,45.901,49.64z"/>
</g>
</svg>
