<?xml version="1.0" encoding="utf-8"?>
<!-- Generator: Adobe Illustrator 16.0.0, SVG Export Plug-In . SVG Version: 6.00 Build 0)  -->
<!DOCTYPE svg PUBLIC "-//W3C//DTD SVG 1.1//EN" "http://www.w3.org/Graphics/SVG/1.1/DTD/svg11.dtd">
<svg version="1.1" id="Layer_1" xmlns="http://www.w3.org/2000/svg" xmlns:xlink="http://www.w3.org/1999/xlink" x="0px" y="0px"
	 width="85.039px" height="85.039px" viewBox="0 0 85.039 85.039" enable-background="new 0 0 85.039 85.039" xml:space="preserve">
<g>
	<path fill-rule="evenodd" clip-rule="evenodd" fill="#FFFFFF" d="M1.727,23.422c8.574,5.108,16.785,10,24.997,14.892
		c4.599,2.74,9.238,5.416,13.775,8.255c1.419,0.888,2.443,0.916,3.902,0.054c12.15-7.184,24.355-14.277,36.546-21.394
		c0.672-0.392,1.366-0.746,2.286-1.245c0.06,0.981,0.139,1.686,0.14,2.391c0.007,13.078-0.104,26.158,0.061,39.234
		c0.062,4.866-2.478,8.688-8.613,8.624c-21.769-0.221-43.54-0.085-65.31-0.086c-5.208-0.001-7.884-2.568-7.893-7.691
		C1.593,52.728,1.607,39,1.612,25.271C1.612,24.793,1.669,24.315,1.727,23.422z"/>
	<path fill-rule="evenodd" clip-rule="evenodd" fill="#FFFFFF" d="M3.083,18.784c1.283-1.887,2.978-2.739,5.174-2.738
		c22.822,0.01,45.643,0.011,68.464,0c2.303-0.001,4.03,0.974,5.445,3.003c-0.529,0.377-0.994,0.766-1.511,1.068
		C68.549,27.209,56.435,34.291,44.326,41.38c-1.058,0.619-1.901,1.075-3.269,0.249C28.771,34.206,16.416,26.896,4.084,19.546
		C3.747,19.345,3.454,19.069,3.083,18.784z"/>
</g>
</svg>
