<?xml version="1.0" encoding="utf-8"?>
<!-- Generator: Adobe Illustrator 16.0.0, SVG Export Plug-In . SVG Version: 6.00 Build 0)  -->
<!DOCTYPE svg PUBLIC "-//W3C//DTD SVG 1.1//EN" "http://www.w3.org/Graphics/SVG/1.1/DTD/svg11.dtd">
<svg version="1.1" id="Layer_1" xmlns="http://www.w3.org/2000/svg" xmlns:xlink="http://www.w3.org/1999/xlink" x="0px" y="0px"
	 width="85.039px" height="85.039px" viewBox="0 0 85.039 85.039" enable-background="new 0 0 85.039 85.039" xml:space="preserve">
<path fill-rule="evenodd" clip-rule="evenodd" fill="#F1E91E" d="M83.304,20.134c0,14.719,0,29.438,0,44.158
	c-0.903,1.618-1.513,3.54-2.791,4.768c-1.277,1.227-3.223,1.757-4.876,2.593c-20.238,0-40.477,0-60.716,0
	c-0.705-0.055-1.409-0.115-2.114-0.161c-1.566-0.101-3.187,0.03-4.689-0.333c-3.569-0.864-5.397-3.514-6.383-6.866
	c0-14.515,0-29.03,0-43.544c0.161-0.467,0.323-0.934,0.481-1.401c1.129-3.33,3.643-5.061,6.878-5.958c22.283,0,44.567,0,66.849,0
	C79.691,14.225,82.137,16.483,83.304,20.134z M74.921,18.058c-21.679,0-42.949,0-64.455,0c0.399,0.434,0.651,0.729,0.926,1.003
	c9.833,9.81,19.666,19.618,29.504,29.421c1.613,1.607,1.968,1.598,3.608-0.039c7.658-7.649,15.314-15.301,22.973-22.952
	C69.882,23.088,72.289,20.687,74.921,18.058z M50.865,48.145c-2.155,2.176-4.373,4.428-6.607,6.663
	c-1.321,1.321-1.83,1.319-3.157-0.009c-2.332-2.335-4.649-4.684-6.641-6.691c-6.508,6.498-12.897,12.878-19.085,19.057
	c17.949,0,36.258,0,54.514,0C63.592,60.869,57.32,54.598,50.865,48.145z M54.384,45.094c-0.022-0.053-0.004,0.061,0.062,0.127
	c7.065,7.082,14.125,14.17,21.232,21.21c0.283,0.28,1.156,0.319,1.525,0.095c1.658-1.009,1.774-2.73,1.775-4.449
	c0.004-13.424,0.003-26.848-0.002-40.272c0-0.424-0.057-0.849-0.09-1.301C70.698,28.721,62.602,36.847,54.384,45.094z M8.467,66.851
	c7.48-7.493,14.862-14.888,21.978-22.017c-7.878-7.923-15.843-15.933-23.806-23.942c0,4.849,0,9.794,0,14.74
	c0.001,9.247,0.009,18.493-0.006,27.739C6.63,64.905,6.943,66.21,8.467,66.851z"/>
</svg>
