<?xml version="1.0" encoding="utf-8"?>
<!-- Generator: Adobe Illustrator 16.0.0, SVG Export Plug-In . SVG Version: 6.00 Build 0)  -->
<!DOCTYPE svg PUBLIC "-//W3C//DTD SVG 1.1//EN" "http://www.w3.org/Graphics/SVG/1.1/DTD/svg11.dtd">
<svg version="1.1" id="Layer_1" xmlns="http://www.w3.org/2000/svg" xmlns:xlink="http://www.w3.org/1999/xlink" x="0px" y="0px"
	 width="85.039px" height="85.039px" viewBox="0 0 85.039 85.039" enable-background="new 0 0 85.039 85.039" xml:space="preserve">
<path fill="#FFFFFF" d="M24.007,15.356c0-1.68-0.004-3.293,0.001-4.906c0.004-1.267,0.874-2.227,2.167-2.408
	c1.128-0.158,2.266,0.604,2.583,1.754c0.075,0.269,0.099,0.56,0.101,0.84c0.01,1.419,0.004,2.839,0.004,4.259
	c0,0.139,0,0.277,0,0.438c8.747,0,17.452,0,26.206,0c0-0.147,0-0.285,0-0.422c0-1.458-0.002-2.917,0-4.375
	c0.002-1.425,1.063-2.519,2.437-2.516c1.349,0.003,2.422,1.095,2.431,2.489c0.008,1.458,0.002,2.917,0.002,4.375
	c0,0.14,0,0.28,0,0.471c0.176,0,0.326,0,0.477,0c2.762,0,5.523-0.001,8.287,0c2.732,0.001,4.794,2.064,4.794,4.798
	c0,16.521,0,33.042,0,49.564c0,2.732-2.065,4.805-4.791,4.805c-17.451,0-34.901,0-52.352,0c-2.72,0-4.802-2.076-4.802-4.801
	c-0.002-16.521-0.002-33.042,0-49.563c0-2.73,2.072-4.8,4.797-4.802c2.401-0.002,4.802,0,7.203,0
	C23.689,15.356,23.828,15.356,24.007,15.356z M69.788,33.022c-18.204,0-36.354,0-54.53,0c0,0.171,0,0.312,0,0.452
	c0,11.383,0,22.768,0,34.151c0,2.043,1.375,3.417,3.422,3.417c16.082,0,32.164-0.009,48.245,0.015
	c1.608,0.002,2.886-1.246,2.88-2.894C69.773,56.6,69.788,45.035,69.788,33.47C69.788,33.33,69.788,33.189,69.788,33.022z
	 M59.936,18.597c0,0.986,0.014,1.913-0.004,2.839c-0.031,1.697-1.66,2.838-3.238,2.284c-0.961-0.337-1.611-1.237-1.623-2.272
	c-0.01-0.935-0.002-1.869-0.002-2.832c-1.049,0.674-1.576,2.392-1.196,3.773c0.446,1.62,1.837,2.714,3.541,2.784
	c1.577,0.065,3.088-0.98,3.628-2.508C61.555,21.211,61.1,19.464,59.936,18.597z M28.883,18.626
	c-0.008,0.141-0.021,0.263-0.022,0.386c-0.002,0.8,0.015,1.6-0.005,2.399c-0.034,1.35-0.995,2.363-2.302,2.455
	c-1.183,0.083-2.329-0.783-2.5-2.015c-0.109-0.785-0.037-1.596-0.045-2.395c-0.002-0.275,0-0.551,0-0.862
	c-1.103,0.756-1.603,2.488-1.172,3.908c0.479,1.582,1.936,2.667,3.588,2.673c1.622,0.006,3.095-1.07,3.59-2.623
	C30.466,21.13,29.978,19.395,28.883,18.626z"/>
<path fill="#FFFFFF" d="M55.458,51.834c0-0.748-0.002-1.497,0.001-2.245c0.004-0.884,0.564-1.455,1.448-1.46
	c1.497-0.007,2.993-0.006,4.491,0c0.89,0.004,1.455,0.555,1.463,1.447c0.014,1.497,0.013,2.994,0,4.49
	c-0.006,0.918-0.563,1.455-1.489,1.459c-1.472,0.007-2.942,0.007-4.413,0c-0.962-0.004-1.499-0.555-1.5-1.522
	C55.457,53.279,55.458,52.557,55.458,51.834z"/>
<path fill="#FFFFFF" d="M55.458,40.741c0-0.749-0.003-1.497,0.001-2.245c0.005-0.86,0.564-1.437,1.426-1.443
	c1.51-0.01,3.02-0.008,4.529,0c0.854,0.004,1.432,0.54,1.443,1.387c0.022,1.548,0.023,3.097,0,4.645
	c-0.014,0.817-0.57,1.351-1.387,1.358c-1.535,0.016-3.07,0.015-4.605,0c-0.864-0.008-1.402-0.582-1.406-1.458
	C55.456,42.238,55.458,41.49,55.458,40.741z"/>
<path fill="#FFFFFF" d="M40.669,40.774c0,0.761,0.004,1.522-0.001,2.285c-0.005,0.797-0.51,1.366-1.307,1.379
	c-1.586,0.026-3.173,0.027-4.76,0c-0.797-0.015-1.3-0.584-1.303-1.385c-0.005-1.535-0.005-3.07,0-4.604
	c0.002-0.803,0.543-1.381,1.346-1.391c1.561-0.018,3.122-0.019,4.683,0c0.802,0.01,1.335,0.59,1.341,1.395
	C40.673,39.226,40.669,40,40.669,40.774z"/>
<path fill="#FFFFFF" d="M44.377,40.728c0-0.749-0.002-1.497,0-2.245c0.004-0.827,0.54-1.416,1.355-1.425
	c1.562-0.019,3.123-0.019,4.684,0c0.785,0.01,1.331,0.574,1.338,1.359c0.014,1.561,0.014,3.122,0,4.683
	c-0.007,0.776-0.527,1.326-1.311,1.338c-1.586,0.025-3.174,0.027-4.76,0c-0.789-0.015-1.301-0.597-1.306-1.388
	C44.374,42.275,44.377,41.501,44.377,40.728z"/>
<path fill="#FFFFFF" d="M29.586,40.776c0,0.749,0.002,1.497,0,2.246c-0.003,0.82-0.508,1.403-1.315,1.416
	c-1.586,0.026-3.174,0.026-4.76,0c-0.779-0.014-1.293-0.567-1.3-1.349c-0.013-1.561-0.014-3.122,0.001-4.683
	c0.007-0.783,0.562-1.341,1.347-1.35c1.561-0.017,3.123-0.019,4.683,0.001c0.802,0.011,1.34,0.597,1.344,1.396
	C29.589,39.228,29.586,40.002,29.586,40.776z"/>
<path fill="#FFFFFF" d="M29.586,51.822c0,0.761,0.002,1.521,0,2.283c-0.003,0.815-0.512,1.396-1.324,1.412
	c-1.574,0.027-3.148,0.025-4.722,0c-0.8-0.012-1.323-0.563-1.33-1.361c-0.013-1.549-0.013-3.096,0-4.646
	c0.007-0.825,0.567-1.376,1.396-1.382c1.522-0.01,3.045-0.01,4.567,0c0.863,0.006,1.41,0.579,1.412,1.448
	C29.588,50.326,29.586,51.074,29.586,51.822z"/>
<path fill="#FFFFFF" d="M44.377,51.814c0-0.762-0.004-1.522,0.001-2.283c0.005-0.801,0.545-1.387,1.345-1.397
	c1.561-0.02,3.123-0.018,4.684-0.001c0.787,0.01,1.341,0.567,1.348,1.35c0.014,1.561,0.014,3.123,0.001,4.684
	c-0.007,0.793-0.534,1.343-1.338,1.354c-1.562,0.023-3.123,0.022-4.683,0c-0.832-0.011-1.354-0.588-1.356-1.42
	C44.375,53.337,44.377,52.576,44.377,51.814z"/>
<path fill="#FFFFFF" d="M51.76,63.273c0,0.748,0.006,1.498-0.001,2.246c-0.008,0.916-0.522,1.433-1.444,1.437
	c-1.496,0.007-2.992,0.007-4.488,0c-0.93-0.004-1.446-0.54-1.447-1.479c-0.001-1.482-0.002-2.967,0-4.451
	c0.001-0.892,0.555-1.443,1.45-1.446c1.497-0.003,2.993-0.003,4.489,0c0.896,0.002,1.434,0.542,1.44,1.448
	C51.766,61.777,51.76,62.525,51.76,63.273z"/>
<path fill="#FFFFFF" d="M40.669,51.807c0,0.762,0.004,1.522-0.001,2.283c-0.005,0.824-0.56,1.38-1.384,1.383
	c-1.535,0.006-3.07,0.006-4.605,0c-0.821-0.002-1.377-0.563-1.38-1.388c-0.005-1.535-0.005-3.069,0-4.604
	c0.003-0.834,0.543-1.371,1.385-1.375c1.535-0.008,3.07-0.008,4.605,0c0.84,0.004,1.374,0.543,1.379,1.379
	C40.673,50.258,40.669,51.033,40.669,51.807z"/>
<path fill="#FFFFFF" d="M29.586,63.293c0,0.762,0.003,1.521-0.001,2.283c-0.004,0.808-0.537,1.369-1.35,1.376
	c-1.561,0.014-3.122,0.014-4.683,0c-0.803-0.007-1.335-0.538-1.342-1.339c-0.014-1.562-0.015-3.122,0-4.684
	c0.008-0.805,0.574-1.346,1.382-1.349c1.535-0.006,3.07-0.007,4.605,0c0.821,0.003,1.382,0.571,1.387,1.39
	C29.59,61.745,29.586,62.52,29.586,63.293z"/>
<path fill="#FFFFFF" d="M40.668,63.292c0,0.774,0.006,1.548-0.001,2.322c-0.007,0.771-0.533,1.327-1.304,1.336
	c-1.586,0.017-3.174,0.017-4.76,0c-0.772-0.009-1.301-0.565-1.304-1.336c-0.007-1.562-0.007-3.122,0-4.683
	c0.003-0.773,0.567-1.344,1.343-1.349c1.561-0.01,3.122-0.01,4.683,0c0.776,0.005,1.335,0.575,1.342,1.349
	C40.674,61.718,40.668,62.505,40.668,63.292z"/>
</svg>
