<?xml version="1.0" encoding="utf-8"?>
<!-- Generator: Adobe Illustrator 16.0.0, SVG Export Plug-In . SVG Version: 6.00 Build 0)  -->
<!DOCTYPE svg PUBLIC "-//W3C//DTD SVG 1.1//EN" "http://www.w3.org/Graphics/SVG/1.1/DTD/svg11.dtd">
<svg version="1.1" id="Layer_1" xmlns="http://www.w3.org/2000/svg" xmlns:xlink="http://www.w3.org/1999/xlink" x="0px" y="0px"
	 width="85.039px" height="85.039px" viewBox="0 0 85.039 85.039" enable-background="new 0 0 85.039 85.039" xml:space="preserve">
<path fill-rule="evenodd" clip-rule="evenodd" fill="#EBE717" d="M24.007,15.356c0-1.68-0.004-3.293,0.001-4.906
	c0.004-1.267,0.874-2.227,2.167-2.408c1.128-0.158,2.266,0.604,2.583,1.754c0.075,0.269,0.099,0.56,0.101,0.84
	c0.01,1.419,0.004,2.839,0.004,4.259c0,0.139,0,0.277,0,0.438c8.747,0,17.452,0,26.205,0c0-0.147,0-0.285,0-0.422
	c0-1.458-0.002-2.917,0-4.375c0.002-1.425,1.063-2.519,2.437-2.516c1.349,0.003,2.422,1.095,2.43,2.489
	c0.008,1.458,0.002,2.917,0.002,4.375c0,0.14,0,0.28,0,0.471c0.177,0,0.327,0,0.477,0c2.762,0,5.524-0.001,8.287,0
	c2.733,0.001,4.794,2.064,4.794,4.798c0,16.521,0,33.043,0,49.564c0,2.732-2.066,4.805-4.791,4.805c-17.451,0-34.901,0-52.352,0
	c-2.72,0-4.802-2.076-4.802-4.801c-0.002-16.521-0.002-33.042,0-49.564c0-2.73,2.072-4.8,4.797-4.802c2.401-0.002,4.802,0,7.203,0
	C23.689,15.356,23.828,15.356,24.007,15.356z M69.788,33.022c-18.204,0-36.354,0-54.53,0c0,0.171,0,0.312,0,0.452
	c0,11.384,0,22.768,0,34.151c0,2.043,1.375,3.417,3.422,3.417c16.082,0,32.164-0.009,48.245,0.014
	c1.608,0.002,2.885-1.246,2.88-2.893c-0.032-11.564-0.017-23.128-0.017-34.693C69.788,33.33,69.788,33.189,69.788,33.022z
	 M59.935,18.597c0,0.986,0.014,1.913-0.003,2.839c-0.032,1.697-1.66,2.838-3.239,2.284c-0.961-0.337-1.611-1.237-1.622-2.273
	c-0.01-0.935-0.002-1.869-0.002-2.832c-1.049,0.674-1.577,2.392-1.197,3.773c0.446,1.62,1.837,2.714,3.541,2.784
	c1.577,0.065,3.088-0.98,3.628-2.508C61.554,21.211,61.1,19.464,59.935,18.597z M28.883,18.626
	c-0.008,0.141-0.021,0.263-0.022,0.386c-0.002,0.8,0.015,1.6-0.005,2.399c-0.034,1.35-0.995,2.363-2.302,2.455
	c-1.183,0.083-2.329-0.783-2.5-2.015c-0.109-0.785-0.037-1.596-0.045-2.395c-0.002-0.275,0-0.551,0-0.862
	c-1.103,0.756-1.603,2.488-1.172,3.908c0.479,1.582,1.936,2.667,3.588,2.673c1.622,0.006,3.095-1.07,3.59-2.623
	C30.466,21.13,29.978,19.395,28.883,18.626z"/>
<path fill-rule="evenodd" clip-rule="evenodd" fill="#EBE717" d="M55.458,51.834c0-0.748-0.002-1.497,0.001-2.245
	c0.004-0.884,0.564-1.455,1.448-1.46c1.497-0.007,2.994-0.006,4.491,0c0.89,0.004,1.456,0.555,1.464,1.447
	c0.013,1.497,0.012,2.994,0,4.491c-0.007,0.917-0.564,1.455-1.49,1.459c-1.471,0.006-2.942,0.006-4.413,0
	c-0.962-0.004-1.499-0.555-1.5-1.523C55.457,53.279,55.458,52.557,55.458,51.834z"/>
<path fill-rule="evenodd" clip-rule="evenodd" fill="#EBE717" d="M55.458,40.741c0-0.749-0.003-1.497,0.001-2.245
	c0.005-0.86,0.565-1.437,1.426-1.443c1.51-0.01,3.02-0.008,4.529,0c0.853,0.004,1.432,0.54,1.444,1.387
	c0.022,1.548,0.023,3.097-0.001,4.645c-0.013,0.818-0.57,1.351-1.386,1.359c-1.536,0.015-3.071,0.014-4.606,0
	c-0.864-0.008-1.402-0.583-1.406-1.458C55.456,42.238,55.458,41.49,55.458,40.741z"/>
<path fill-rule="evenodd" clip-rule="evenodd" fill="#EBE717" d="M40.669,40.774c0,0.761,0.004,1.522-0.001,2.284
	c-0.005,0.798-0.51,1.367-1.307,1.38c-1.586,0.026-3.173,0.027-4.76-0.001c-0.797-0.014-1.3-0.584-1.303-1.384
	c-0.005-1.535-0.005-3.07,0-4.605c0.002-0.803,0.543-1.381,1.346-1.391c1.561-0.018,3.122-0.019,4.683,0
	c0.802,0.01,1.335,0.59,1.341,1.395C40.673,39.226,40.669,40,40.669,40.774z"/>
<path fill-rule="evenodd" clip-rule="evenodd" fill="#EBE717" d="M44.377,40.728c0-0.749-0.002-1.497,0-2.245
	c0.004-0.827,0.54-1.416,1.356-1.425c1.561-0.019,3.122-0.019,4.683,0c0.785,0.01,1.331,0.574,1.338,1.359
	c0.013,1.561,0.013,3.122,0,4.683c-0.007,0.776-0.527,1.326-1.31,1.338c-1.586,0.025-3.174,0.027-4.76-0.001
	c-0.79-0.014-1.301-0.596-1.306-1.387C44.374,42.275,44.377,41.501,44.377,40.728z"/>
<path fill-rule="evenodd" clip-rule="evenodd" fill="#EBE717" d="M29.586,40.776c0,0.749,0.002,1.497,0,2.245
	c-0.003,0.821-0.508,1.404-1.315,1.417c-1.586,0.026-3.174,0.026-4.76-0.001c-0.779-0.013-1.293-0.567-1.3-1.348
	c-0.013-1.561-0.014-3.122,0.001-4.683c0.007-0.783,0.562-1.341,1.347-1.35c1.561-0.017,3.123-0.019,4.683,0.001
	c0.802,0.011,1.34,0.597,1.344,1.396C29.589,39.228,29.586,40.002,29.586,40.776z"/>
<path fill-rule="evenodd" clip-rule="evenodd" fill="#EBE717" d="M29.586,51.822c0,0.761,0.002,1.522,0,2.284
	c-0.003,0.815-0.512,1.396-1.324,1.411c-1.574,0.028-3.148,0.026-4.722,0.001c-0.8-0.012-1.323-0.564-1.33-1.362
	c-0.013-1.548-0.013-3.096,0-4.645c0.007-0.825,0.567-1.376,1.396-1.382c1.522-0.01,3.045-0.01,4.567,0
	c0.863,0.006,1.41,0.579,1.412,1.448C29.588,50.326,29.586,51.074,29.586,51.822z"/>
<path fill-rule="evenodd" clip-rule="evenodd" fill="#EBE717" d="M44.377,51.814c0-0.761-0.004-1.522,0.001-2.283
	c0.005-0.8,0.545-1.387,1.344-1.397c1.561-0.02,3.123-0.018,4.684-0.001c0.787,0.009,1.341,0.567,1.348,1.349
	c0.014,1.561,0.014,3.123,0.001,4.684c-0.007,0.793-0.535,1.343-1.338,1.354c-1.561,0.023-3.123,0.022-4.683,0
	c-0.831-0.011-1.353-0.588-1.356-1.421C44.375,53.337,44.377,52.576,44.377,51.814z"/>
<path fill-rule="evenodd" clip-rule="evenodd" fill="#EBE717" d="M51.76,63.274c0,0.748,0.005,1.497-0.001,2.245
	c-0.008,0.916-0.523,1.433-1.444,1.437c-1.497,0.007-2.993,0.007-4.489,0c-0.93-0.004-1.446-0.54-1.447-1.479
	c-0.001-1.483-0.002-2.967,0-4.451c0.001-0.892,0.554-1.444,1.45-1.447c1.497-0.003,2.993-0.003,4.489,0
	c0.896,0.002,1.434,0.542,1.441,1.449C51.765,61.778,51.76,62.526,51.76,63.274z"/>
<path fill-rule="evenodd" clip-rule="evenodd" fill="#EBE717" d="M40.669,51.807c0,0.761,0.004,1.522-0.001,2.283
	c-0.005,0.824-0.56,1.38-1.384,1.383c-1.535,0.005-3.07,0.005-4.605,0c-0.821-0.002-1.377-0.563-1.38-1.388
	c-0.005-1.535-0.005-3.07,0-4.605c0.003-0.833,0.543-1.371,1.385-1.375c1.535-0.007,3.07-0.007,4.605,0
	c0.84,0.004,1.374,0.543,1.379,1.38C40.673,50.258,40.669,51.033,40.669,51.807z"/>
<path fill-rule="evenodd" clip-rule="evenodd" fill="#EBE717" d="M29.586,63.293c0,0.761,0.003,1.522-0.001,2.283
	c-0.004,0.808-0.537,1.369-1.35,1.376c-1.561,0.014-3.122,0.014-4.683,0c-0.803-0.007-1.335-0.538-1.342-1.339
	c-0.014-1.561-0.015-3.122,0-4.683c0.008-0.805,0.574-1.346,1.382-1.349c1.535-0.006,3.07-0.007,4.605,0
	c0.821,0.003,1.382,0.572,1.387,1.39C29.59,61.745,29.586,62.52,29.586,63.293z"/>
<path fill-rule="evenodd" clip-rule="evenodd" fill="#EBE717" d="M40.668,63.292c0,0.774,0.006,1.548-0.001,2.322
	c-0.007,0.771-0.533,1.328-1.304,1.336c-1.586,0.017-3.174,0.017-4.76,0c-0.772-0.008-1.301-0.565-1.304-1.336
	c-0.007-1.561-0.007-3.122,0-4.683c0.003-0.773,0.567-1.343,1.343-1.348c1.561-0.01,3.122-0.01,4.683,0
	c0.776,0.005,1.335,0.575,1.342,1.349C40.674,61.718,40.668,62.505,40.668,63.292z"/>
</svg>
