<?xml version="1.0" encoding="utf-8"?>
<!-- Generator: Adobe Illustrator 16.0.0, SVG Export Plug-In . SVG Version: 6.00 Build 0)  -->
<!DOCTYPE svg PUBLIC "-//W3C//DTD SVG 1.1//EN" "http://www.w3.org/Graphics/SVG/1.1/DTD/svg11.dtd">
<svg version="1.1" id="Layer_1" xmlns="http://www.w3.org/2000/svg" xmlns:xlink="http://www.w3.org/1999/xlink" x="0px" y="0px"
	 width="85.039px" height="85.039px" viewBox="0 0 85.039 85.039" enable-background="new 0 0 85.039 85.039" xml:space="preserve">
<path fill="#FFFFFF" d="M10.153,69.895c-2.372-3.455-4.625-6.701-6.807-9.994c-0.154-0.232,0.083-1.006,0.365-1.205
	c4.725-3.328,9.434-6.684,14.258-9.863c2.892-1.906,6.161-2.088,9.26-0.607c6.229,2.977,12.38,6.121,18.524,9.272
	c2.095,1.073,2.69,3.114,1.692,4.996c-0.998,1.881-2.913,2.462-5.076,1.428c-3.706-1.772-7.38-3.61-11.072-5.414
	c-0.605-0.295-1.211-0.646-1.856-0.78c-0.34-0.07-0.767,0.27-1.154,0.424c0.15,0.34,0.253,0.713,0.466,1.008
	c0.139,0.191,0.43,0.279,0.663,0.396c4.044,2.028,8.141,3.961,12.122,6.108c4.11,2.217,8.563-1.263,8.293-5.19
	c-0.036-0.516,0.399-1.269,0.847-1.582c5.12-3.58,10.274-7.109,15.442-10.619c2.11-1.434,4.216-1.111,5.479,0.74
	c1.16,1.7,0.654,3.84-1.379,5.247c-8.693,6.013-17.426,11.968-26.104,18.001c-1.468,1.021-2.825,1.254-4.508,0.629
	c-5.697-2.111-11.494-3.967-17.12-6.248c-3.478-1.41-6.414-1.197-9.264,1.213C12.364,68.583,11.338,69.118,10.153,69.895z"/>
<path fill="#FFFFFF" d="M46.197,47.186c-8.863,0.271-16.378-7.544-16.212-16.292c0.172-9.102,7.325-16.111,16.635-16.057
	c8.733,0.052,16.063,7.553,15.952,16.328C62.459,40.097,55.154,47.244,46.197,47.186z M44.688,19.245
	c0.457,1.891-0.238,2.705-1.932,3.276c-2.272,0.768-3.522,3.194-3.227,5.35c0.337,2.468,2.141,4.331,4.692,4.781
	c1.176,0.208,2.408,0.195,3.534,0.542c0.563,0.175,1.286,0.916,1.315,1.436c0.031,0.518-0.65,1.464-1.137,1.548
	c-1.178,0.204-2.688,0.447-3.586-0.105c-1.773-1.094-3.012-0.106-4.563,0.277c0.872,2.529,2.898,3.316,4.944,3.969
	c0.041,0.839,0.076,1.556,0.115,2.335c0.988,0,1.879,0,2.748,0c0.371-2.133,0.458-1.995,2.297-3.163
	c1.078-0.684,2.153-1.746,2.66-2.89c1.525-3.447-1.094-6.993-5.225-7.366c-0.932-0.084-1.909-0.112-2.76-0.439
	c-0.523-0.202-1.15-0.908-1.176-1.415c-0.025-0.503,0.59-1.425,1.023-1.49c1.24-0.186,2.857-0.507,3.734,0.092
	c1.795,1.227,2.982,0.1,4.543-0.335c-0.703-1.713-1.793-2.857-3.408-3.347c-1.043-0.315-1.643-0.722-1.469-1.916
	c0.138-0.945-0.381-1.321-1.304-1.231C45.999,19.206,45.484,19.208,44.688,19.245z"/>
</svg>
