<?xml version="1.0" encoding="utf-8"?>
<!-- Generator: Adobe Illustrator 16.0.0, SVG Export Plug-In . SVG Version: 6.00 Build 0)  -->
<!DOCTYPE svg PUBLIC "-//W3C//DTD SVG 1.1//EN" "http://www.w3.org/Graphics/SVG/1.1/DTD/svg11.dtd">
<svg version="1.1" id="Layer_1" xmlns="http://www.w3.org/2000/svg" xmlns:xlink="http://www.w3.org/1999/xlink" x="0px" y="0px"
	 width="85.039px" height="85.039px" viewBox="0 0 85.039 85.039" enable-background="new 0 0 85.039 85.039" xml:space="preserve">
<path fill-rule="evenodd" clip-rule="evenodd" fill="#EBE717" d="M10.153,69.895c-2.372-3.455-4.625-6.701-6.807-9.994
	c-0.154-0.233,0.083-1.006,0.365-1.206c4.725-3.328,9.434-6.683,14.258-9.863c2.892-1.906,6.161-2.088,9.26-0.608
	c6.229,2.977,12.38,6.122,18.524,9.273c2.094,1.074,2.691,3.115,1.693,4.996s-2.914,2.462-5.077,1.428
	c-3.706-1.772-7.38-3.611-11.072-5.414c-0.605-0.295-1.211-0.646-1.856-0.78c-0.34-0.071-0.767,0.269-1.154,0.424
	c0.15,0.34,0.253,0.712,0.466,1.007c0.139,0.192,0.43,0.28,0.663,0.396c4.044,2.029,8.141,3.961,12.122,6.109
	c4.11,2.217,8.563-1.262,8.293-5.19c-0.036-0.516,0.399-1.269,0.847-1.582c5.12-3.58,10.274-7.11,15.442-10.62
	c2.111-1.433,4.216-1.111,5.479,0.74c1.161,1.701,0.655,3.841-1.378,5.248c-8.693,6.012-17.426,11.967-26.104,18.001
	c-1.468,1.021-2.825,1.253-4.508,0.629c-5.697-2.111-11.494-3.967-17.12-6.248c-3.478-1.411-6.414-1.198-9.264,1.213
	C12.364,68.583,11.338,69.118,10.153,69.895z"/>
<path fill-rule="evenodd" clip-rule="evenodd" fill="#EBE717" d="M46.197,47.185c-8.863,0.272-16.378-7.544-16.212-16.292
	c0.172-9.102,7.325-16.111,16.635-16.057c8.733,0.052,16.063,7.553,15.953,16.328C62.459,40.097,55.154,47.244,46.197,47.185z
	 M44.687,19.245c0.458,1.891-0.238,2.705-1.931,3.276c-2.272,0.768-3.522,3.194-3.227,5.35c0.337,2.468,2.141,4.331,4.691,4.781
	c1.176,0.208,2.409,0.195,3.535,0.542c0.564,0.175,1.286,0.916,1.316,1.436c0.03,0.518-0.651,1.464-1.137,1.548
	c-1.178,0.204-2.689,0.447-3.586-0.105c-1.774-1.094-3.012-0.106-4.564,0.277c0.872,2.529,2.898,3.316,4.944,3.969
	c0.042,0.839,0.077,1.556,0.116,2.335c0.988,0,1.879,0,2.748,0c0.371-2.133,0.458-1.995,2.297-3.163
	c1.078-0.684,2.153-1.746,2.66-2.89c1.525-3.447-1.094-6.993-5.225-7.366c-0.931-0.084-1.909-0.112-2.76-0.439
	c-0.523-0.202-1.15-0.908-1.175-1.415c-0.025-0.503,0.589-1.425,1.023-1.49c1.241-0.186,2.858-0.507,3.735,0.092
	c1.795,1.227,2.982,0.1,4.542-0.335c-0.702-1.713-1.792-2.857-3.408-3.347c-1.043-0.315-1.642-0.722-1.468-1.916
	c0.137-0.945-0.382-1.321-1.304-1.231C45.999,19.206,45.485,19.208,44.687,19.245z"/>
</svg>
