<?xml version="1.0" encoding="utf-8"?>
<!-- Generator: Adobe Illustrator 16.0.0, SVG Export Plug-In . SVG Version: 6.00 Build 0)  -->
<!DOCTYPE svg PUBLIC "-//W3C//DTD SVG 1.1//EN" "http://www.w3.org/Graphics/SVG/1.1/DTD/svg11.dtd">
<svg version="1.1" id="Layer_1" xmlns="http://www.w3.org/2000/svg" xmlns:xlink="http://www.w3.org/1999/xlink" x="0px" y="0px"
	 width="85.039px" height="85.039px" viewBox="0 0 85.039 85.039" enable-background="new 0 0 85.039 85.039" xml:space="preserve">
<path fill-rule="evenodd" clip-rule="evenodd" fill="#FFFFFF" d="M40.787,82.236c-7.925-9.15-15.249-18.31-21.355-28.361
	C17,49.872,14.898,45.649,12.913,41.4c-5.41-11.576-0.293-24.521,7.226-31.319c8.813-7.968,19.09-10.316,30.296-6.477
	c11.295,3.87,17.837,12.177,19.984,23.9c0.941,5.144-0.186,10.003-2.233,14.719c-4.186,9.646-10.175,18.167-16.513,26.457
	C48.201,73.223,44.518,77.604,40.787,82.236z M40.609,76.875c1.751-2.105,3.33-3.951,4.85-5.846
	c6.638-8.271,12.94-16.778,17.729-26.295c2.825-5.617,4.534-11.375,3.214-17.832C63.683,13.6,50.56,4.129,37.471,5.867
	C20.783,8.084,9.076,26.568,17.214,42.747c3.684,7.324,7.991,14.209,12.887,20.742C33.459,67.968,37.011,72.305,40.609,76.875z"/>
<path fill-rule="evenodd" clip-rule="evenodd" fill="#FFFFFF" d="M40.558,41.945c-6.955-0.052-12.401-5.637-12.339-12.656
	c0.061-6.932,5.671-12.371,12.701-12.315c6.815,0.054,12.291,5.682,12.254,12.594C53.137,36.529,47.564,41.997,40.558,41.945z
	 M40.671,20.405c-5.1,0.01-9.312,4.256-9.261,9.332c0.051,5.024,4.205,9.173,9.228,9.215c5.065,0.042,9.323-4.181,9.342-9.267
	C49.999,24.596,45.787,20.396,40.671,20.405z"/>
</svg>
