<?xml version="1.0" encoding="utf-8"?>
<!-- Generator: Adobe Illustrator 16.0.0, SVG Export Plug-In . SVG Version: 6.00 Build 0)  -->
<!DOCTYPE svg PUBLIC "-//W3C//DTD SVG 1.1//EN" "http://www.w3.org/Graphics/SVG/1.1/DTD/svg11.dtd">
<svg version="1.1" id="Layer_1" xmlns="http://www.w3.org/2000/svg" xmlns:xlink="http://www.w3.org/1999/xlink" x="0px" y="0px"
	 width="85.039px" height="85.039px" viewBox="0 0 85.039 85.039" enable-background="new 0 0 85.039 85.039" xml:space="preserve">
<path fill="#989997" d="M42.471,83.039c-3.002-4.23-5.93-8.262-8.754-12.361c-4.916-7.137-9.606-14.422-13.444-22.203
	c-1.706-3.463-3.209-7.05-4.507-10.686c-2.313-6.474-1.397-12.826,1.546-18.866C25.014,3.12,44.699-1.92,58.95,8.362
	c7.952,5.738,11.854,13.743,11.616,23.581c-0.098,4-1.633,7.708-3.223,11.337c-4.016,9.165-9.289,17.616-14.895,25.862
	c-2.934,4.317-6.033,8.522-9.063,12.774C43.164,82.232,42.9,82.518,42.471,83.039z M42.567,17.565
	c-7.461-0.035-13.515,5.975-13.544,13.449c-0.032,7.468,5.972,13.599,13.377,13.659c7.508,0.06,13.689-5.987,13.727-13.43
	C56.164,23.632,50.187,17.601,42.567,17.565z"/>
</svg>
