<?xml version="1.0" encoding="utf-8"?>
<!-- Generator: Adobe Illustrator 16.0.0, SVG Export Plug-In . SVG Version: 6.00 Build 0)  -->
<!DOCTYPE svg PUBLIC "-//W3C//DTD SVG 1.1//EN" "http://www.w3.org/Graphics/SVG/1.1/DTD/svg11.dtd">
<svg version="1.1" id="Layer_1" xmlns="http://www.w3.org/2000/svg" xmlns:xlink="http://www.w3.org/1999/xlink" x="0px" y="0px"
	 width="85.039px" height="85.039px" viewBox="0 0 85.039 85.039" enable-background="new 0 0 85.039 85.039" xml:space="preserve">
<circle fill-rule="evenodd" clip-rule="evenodd" cx="40.915" cy="30.843" r="27.424"/>
<g>
	<g>
		<path d="M63.831,68.02l3.695,10.15h3.155l3.777-10.15h-3.321l-1.308,4.712c-0.229,0.872-0.395,1.64-0.561,2.47h-0.062
			c-0.145-0.81-0.332-1.619-0.581-2.47l-1.37-4.712H63.831z M59.591,74.476c0,0.188-0.021,0.374-0.063,0.54
			c-0.208,0.644-0.851,1.163-1.641,1.163c-0.706,0-1.245-0.395-1.245-1.204c0-1.224,1.287-1.618,2.948-1.598V74.476z M62.808,78.17
			c-0.104-0.56-0.146-1.494-0.146-2.47v-3.529c0-2.387-1.079-4.379-4.463-4.379c-1.847,0-3.238,0.498-3.944,0.892l0.581,2.034
			c0.665-0.415,1.765-0.768,2.802-0.768c1.557,0,1.848,0.768,1.848,1.308v0.146c-3.592-0.021-5.958,1.245-5.958,3.881
			c0,1.619,1.226,3.113,3.28,3.113c1.204,0,2.242-0.437,2.906-1.246h0.063l0.187,1.017H62.808z M48.482,78.17h3.155V63.433h-3.155
			V78.17z M42.914,74.476c0,0.188-0.021,0.374-0.063,0.54c-0.208,0.644-0.851,1.163-1.641,1.163c-0.706,0-1.245-0.395-1.245-1.204
			c0-1.224,1.288-1.618,2.948-1.598V74.476z M46.13,78.17c-0.104-0.56-0.146-1.494-0.146-2.47v-3.529
			c0-2.387-1.079-4.379-4.463-4.379c-1.847,0-3.238,0.498-3.944,0.892l0.581,2.034c0.665-0.415,1.765-0.768,2.802-0.768
			c1.557,0,1.848,0.768,1.848,1.308v0.146c-3.592-0.021-5.958,1.245-5.958,3.881c0,1.619,1.225,3.113,3.28,3.113
			c1.204,0,2.242-0.437,2.906-1.246H43.1l0.187,1.017H46.13z M31.823,73.646c0,0.271-0.021,0.603-0.104,0.83
			c-0.208,0.747-0.851,1.288-1.661,1.288c-1.329,0-2.076-1.184-2.076-2.698c0-1.847,0.935-2.886,2.076-2.886
			c0.872,0,1.473,0.561,1.703,1.391c0.041,0.167,0.062,0.374,0.062,0.582V73.646z M32.321,68.02l-0.104,1.205h-0.041
			c-0.519-0.831-1.392-1.432-2.782-1.432c-2.49,0-4.607,2.075-4.607,5.334c0,2.927,1.785,4.961,4.296,4.961
			c1.163,0,2.138-0.478,2.74-1.329h0.041v0.665c0,1.868-1.142,2.677-2.636,2.677c-1.184,0-2.304-0.394-2.948-0.768l-0.623,2.387
			c0.914,0.519,2.324,0.79,3.653,0.79c1.495,0,3.01-0.291,4.13-1.246c1.142-1.018,1.537-2.616,1.537-4.567V71.03
			c0-1.516,0.041-2.366,0.083-3.01H32.321z M11.286,64.18v7.805c0,4.463,2.075,6.414,5.604,6.414c3.653,0,5.833-2.055,5.833-6.372
			V64.18h-3.155v8.054c0,2.47-0.913,3.633-2.573,3.633c-1.62,0-2.532-1.226-2.532-3.633V64.18H11.286z"/>
	</g>
</g>
<g>
	<circle fill-rule="evenodd" clip-rule="evenodd" fill="#F0E91D" cx="40.225" cy="29.954" r="27.424"/>
	<path fill-rule="evenodd" clip-rule="evenodd" fill="#EB2227" d="M24.559,51.259c0,0,15.923-28.775,42.194-19.79
		c0,0-0.526,16.165-17.06,23.202C49.693,54.671,37.411,59.902,24.559,51.259z"/>
	<path fill-rule="evenodd" clip-rule="evenodd" d="M13.507,31.661c0,0-1.445-23.548,23.462-27.871c0,0,24.054-3.157,29.628,22.462
		C66.598,26.252,23.972,26.542,13.507,31.661z"/>
</g>
<g>
	<g>
		<path fill="#F0E91B" d="M63.27,67.545l3.695,10.15h3.155l3.777-10.15h-3.321l-1.308,4.712c-0.229,0.872-0.395,1.64-0.561,2.47
			h-0.062c-0.145-0.81-0.332-1.619-0.581-2.47l-1.37-4.712H63.27z M59.03,74.001c0,0.188-0.021,0.374-0.063,0.54
			c-0.208,0.644-0.851,1.163-1.641,1.163c-0.706,0-1.245-0.395-1.245-1.204c0-1.224,1.287-1.618,2.948-1.598V74.001z M62.247,77.696
			c-0.104-0.56-0.146-1.494-0.146-2.47v-3.529c0-2.387-1.079-4.379-4.463-4.379c-1.847,0-3.238,0.498-3.944,0.892l0.581,2.034
			c0.665-0.415,1.765-0.768,2.802-0.768c1.557,0,1.848,0.768,1.848,1.308v0.146c-3.592-0.021-5.958,1.245-5.958,3.881
			c0,1.619,1.226,3.113,3.28,3.113c1.204,0,2.242-0.437,2.906-1.246h0.063l0.187,1.017H62.247z M47.921,77.696h3.155V62.958h-3.155
			V77.696z M42.353,74.001c0,0.188-0.021,0.374-0.063,0.54c-0.208,0.644-0.851,1.163-1.641,1.163c-0.706,0-1.245-0.395-1.245-1.204
			c0-1.224,1.288-1.618,2.948-1.598V74.001z M45.569,77.696c-0.104-0.56-0.146-1.494-0.146-2.47v-3.529
			c0-2.387-1.079-4.379-4.463-4.379c-1.847,0-3.238,0.498-3.944,0.892l0.581,2.034c0.665-0.415,1.765-0.768,2.802-0.768
			c1.557,0,1.848,0.768,1.848,1.308v0.146c-3.592-0.021-5.958,1.245-5.958,3.881c0,1.619,1.225,3.113,3.28,3.113
			c1.204,0,2.242-0.437,2.906-1.246h0.063l0.187,1.017H45.569z M31.262,73.171c0,0.271-0.021,0.603-0.104,0.83
			c-0.208,0.747-0.851,1.288-1.661,1.288c-1.329,0-2.076-1.184-2.076-2.698c0-1.847,0.935-2.886,2.076-2.886
			c0.872,0,1.473,0.561,1.703,1.391c0.041,0.167,0.062,0.374,0.062,0.582V73.171z M31.76,67.545l-0.104,1.205h-0.041
			c-0.519-0.831-1.392-1.432-2.782-1.432c-2.49,0-4.607,2.075-4.607,5.334c0,2.927,1.785,4.961,4.296,4.961
			c1.163,0,2.138-0.478,2.74-1.329h0.041v0.665c0,1.868-1.142,2.677-2.636,2.677c-1.184,0-2.304-0.394-2.948-0.768l-0.623,2.387
			c0.914,0.519,2.324,0.79,3.653,0.79c1.495,0,3.01-0.291,4.13-1.246c1.142-1.018,1.537-2.616,1.537-4.567v-5.667
			c0-1.516,0.041-2.366,0.083-3.01H31.76z M10.725,63.706v7.805c0,4.463,2.075,6.414,5.604,6.414c3.653,0,5.833-2.055,5.833-6.372
			v-7.847h-3.155v8.054c0,2.47-0.913,3.633-2.573,3.633c-1.62,0-2.532-1.226-2.532-3.633v-8.054H10.725z"/>
	</g>
</g>
</svg>
