<?xml version="1.0" encoding="utf-8"?>
<!-- Generator: Adobe Illustrator 16.0.0, SVG Export Plug-In . SVG Version: 6.00 Build 0)  -->
<!DOCTYPE svg PUBLIC "-//W3C//DTD SVG 1.1//EN" "http://www.w3.org/Graphics/SVG/1.1/DTD/svg11.dtd">
<svg version="1.1" id="Layer_1" xmlns="http://www.w3.org/2000/svg" xmlns:xlink="http://www.w3.org/1999/xlink" x="0px" y="0px"
	 width="85.039px" height="85.039px" viewBox="0 0 85.039 85.039" enable-background="new 0 0 85.039 85.039" xml:space="preserve">
<path fill-rule="evenodd" clip-rule="evenodd" fill="#F1E91E" d="M42.692,15.56c10.104,0,20.208,0,30.313,0
	c2.016,0,3.022,1.013,3.022,3.044c0.001,16.813,0.001,33.625,0.001,50.438c0,1.908-1.136,3.204-2.813,3.09
	c-0.554-0.037-1.163-0.269-1.618-0.593c-4.58-3.269-9.129-6.58-13.704-9.857c-0.301-0.216-0.734-0.352-1.105-0.352
	c-14.841-0.017-29.682-0.033-44.523,0.009c-1.814,0.005-3.028-1.19-3.024-3.008C9.27,45.057,9.256,31.781,9.258,18.505
	c0-1.9,1.045-2.945,2.939-2.945C22.362,15.559,32.527,15.56,42.692,15.56z M71.737,66.417c0-15.603,0-31.08,0-46.553
	c-19.427,0-38.807,0-58.191,0c0,12.416,0,24.785,0,37.203c0.936,0,1.828,0,2.72,0c13.762,0,27.525,0.002,41.287-0.005
	c0.846,0,1.573,0.228,2.263,0.734c2.718,1.995,5.46,3.958,8.193,5.932C69.224,64.604,70.439,65.481,71.737,66.417z"/>
<path fill-rule="evenodd" clip-rule="evenodd" fill="#F1E91E" d="M42.642,24.698c7.076,0,14.151-0.002,21.227,0.002
	c1.503,0.001,2.469,1.122,2.209,2.535c-0.176,0.951-0.982,1.633-2.028,1.71c-0.162,0.012-0.325,0.005-0.488,0.005
	c-13.867,0-27.734,0-41.601-0.004c-0.404,0-0.817-0.006-1.209-0.09c-1.016-0.217-1.726-1.201-1.633-2.199
	c0.101-1.097,0.962-1.945,2.052-1.953c2.44-0.018,4.88-0.007,7.32-0.007C33.207,24.698,37.924,24.698,42.642,24.698z"/>
<path fill-rule="evenodd" clip-rule="evenodd" fill="#F1E91E" d="M42.58,39.604c-7.055,0-14.11,0.002-21.166-0.001
	c-1.627-0.001-2.682-1.35-2.177-2.794c0.314-0.898,0.995-1.352,1.927-1.447c0.141-0.014,0.285-0.005,0.427-0.005
	c14.029,0,28.058-0.001,42.087,0c1.604,0,2.603,1.014,2.414,2.435c-0.136,1.021-0.946,1.772-1.98,1.804
	c-0.772,0.023-1.545,0.009-2.318,0.009C55.39,39.603,48.985,39.603,42.58,39.604z"/>
<path fill-rule="evenodd" clip-rule="evenodd" fill="#F1E91E" d="M26.829,49.835c-1.768,0-3.536,0.004-5.304-0.001
	c-1.313-0.004-2.266-0.89-2.283-2.106c-0.017-1.202,0.952-2.142,2.251-2.145c3.556-0.008,7.113-0.007,10.669-0.001
	c1.313,0.002,2.271,0.902,2.283,2.114c0.012,1.229-0.964,2.136-2.312,2.139C30.365,49.839,28.597,49.836,26.829,49.835z"/>
</svg>
