<?xml version="1.0" encoding="utf-8"?>
<!-- Generator: Adobe Illustrator 16.0.0, SVG Export Plug-In . SVG Version: 6.00 Build 0)  -->
<!DOCTYPE svg PUBLIC "-//W3C//DTD SVG 1.1//EN" "http://www.w3.org/Graphics/SVG/1.1/DTD/svg11.dtd">
<svg version="1.1" id="Layer_1" xmlns="http://www.w3.org/2000/svg" xmlns:xlink="http://www.w3.org/1999/xlink" x="0px" y="0px"
	 width="85.039px" height="85.039px" viewBox="0 0 85.039 85.039" enable-background="new 0 0 85.039 85.039" xml:space="preserve">
<path fill-rule="evenodd" clip-rule="evenodd" fill="#5D5D5D" d="M24.125,1.543c12.262,0,24.525,0,36.788,0
	c3.845,1.634,4.765,3.054,4.765,7.376c0.001,22.398-0.044,44.796,0.045,67.194c0.015,3.699-1.278,6.176-4.81,7.383
	c-12.263,0-24.525,0-36.788,0c-3.537-1.19-4.823-3.668-4.808-7.359c0.087-22.416,0.043-44.833,0.043-67.25
	C19.36,4.554,20.253,3.179,24.125,1.543z M61.188,64.466c0-17.646,0-35.161,0-52.761c-12.486,0-24.882,0-37.338,0
	c0,17.644,0,35.157,0,52.761C36.295,64.466,48.654,64.466,61.188,64.466z M42.518,5.187c-2.544,0-5.088,0.028-7.631-0.014
	c-1.003-0.017-1.633,0.213-1.655,1.364c-0.022,1.178,0.506,1.571,1.659,1.563c5.087-0.041,10.174-0.041,15.262,0
	c1.155,0.009,1.679-0.391,1.655-1.566c-0.022-1.152-0.658-1.376-1.659-1.36C47.605,5.215,45.062,5.187,42.518,5.187z M42.493,70.017
	c-2.139,0.013-3.816,1.694-3.795,3.803c0.021,2.086,1.768,3.822,3.836,3.813c2.057-0.008,3.821-1.795,3.804-3.85
	C46.319,71.669,44.619,70.004,42.493,70.017z"/>
</svg>
