<?xml version="1.0" encoding="utf-8"?>
<!-- Generator: Adobe Illustrator 16.0.0, SVG Export Plug-In . SVG Version: 6.00 Build 0)  -->
<!DOCTYPE svg PUBLIC "-//W3C//DTD SVG 1.1//EN" "http://www.w3.org/Graphics/SVG/1.1/DTD/svg11.dtd">
<svg version="1.1" id="Layer_1" xmlns="http://www.w3.org/2000/svg" xmlns:xlink="http://www.w3.org/1999/xlink" x="0px" y="0px"
	 width="110.686px" height="85.039px" viewBox="0 0 110.686 85.039" enable-background="new 0 0 110.686 85.039"
	 xml:space="preserve">
<path fill="#000000" d="M55.351,19.378c-12.154,0-24.31,0.021-36.464-0.011c-5.466-0.013-8.63-2.077-8.633-5.491
	c-0.004-3.451,3.038-5.572,8.633-5.585c24.309-0.058,48.622-0.058,72.928,0c5.598,0.013,8.641,2.134,8.637,5.584
	c-0.006,3.416-3.17,5.479-8.637,5.493C79.661,19.399,67.507,19.378,55.351,19.378z"/>
<path fill="#000000" d="M55.923,65.664c11.977,0,23.953-0.021,35.932,0.01c5.42,0.014,8.605,2.111,8.592,5.518c-0.008,3.328-2.93,5.531-8.127,5.545
	c-24.672,0.076-49.341,0.076-74.01-0.002c-5.154-0.018-8.084-2.272-8.057-5.601c0.028-3.433,3.146-5.448,8.666-5.461
	C31.253,65.645,43.587,65.664,55.923,65.664z"/>
<path fill="#000000" d="M55.36,37.034c12.149,0,24.299-0.027,36.45,0.012c5.525,0.018,8.641,2.057,8.637,5.482
	c-0.006,3.421-3.121,5.462-8.664,5.468c-24.299,0.027-48.598,0.027-72.899-0.001c-5.507-0.006-8.659-2.084-8.649-5.49
	c0.013-3.407,3.148-5.442,8.677-5.46C31.058,37.008,43.212,37.034,55.36,37.034z"/>
</svg>
