<?xml version="1.0" encoding="utf-8"?>
<!-- Generator: Adobe Illustrator 16.0.0, SVG Export Plug-In . SVG Version: 6.00 Build 0)  -->
<!DOCTYPE svg PUBLIC "-//W3C//DTD SVG 1.1//EN" "http://www.w3.org/Graphics/SVG/1.1/DTD/svg11.dtd">
<svg version="1.1" id="Layer_1" xmlns="http://www.w3.org/2000/svg" xmlns:xlink="http://www.w3.org/1999/xlink" x="0px" y="0px"
	 width="420px" height="256px" viewBox="0 0 420 256" enable-background="new 0 0 420 256" xml:space="preserve">
<path fill-rule="evenodd" clip-rule="evenodd" d="M33.56,75.986c0-12.32,0-24.257,0-36.909c118.85,0,237.597,0,357.327,0
	c0,12.087,0,24.235,0,36.909C271.89,75.986,153.095,75.986,33.56,75.986z"/>
<path fill-rule="evenodd" clip-rule="evenodd" d="M33.505,143.547c0-12.522,0-24.471,0-37.087c119.046,0,237.836,0,357.495,0
	c0,12.212,0,24.374,0,37.087C272.097,143.547,153.639,143.547,33.505,143.547z"/>
<path fill-rule="evenodd" clip-rule="evenodd" d="M33.479,214c0-12.488,0-24.424,0-37.006c119.113,0,237.865,0,357.506,0
	c0,12.242,0,24.383,0,37.006C272.021,214,153.565,214,33.479,214z"/>
</svg>
