<?xml version="1.0" encoding="utf-8"?>
<!-- Generator: Adobe Illustrator 16.0.0, SVG Export Plug-In . SVG Version: 6.00 Build 0)  -->
<!DOCTYPE svg PUBLIC "-//W3C//DTD SVG 1.1//EN" "http://www.w3.org/Graphics/SVG/1.1/DTD/svg11.dtd">
<svg version="1.1" id="Layer_1" xmlns="http://www.w3.org/2000/svg" xmlns:xlink="http://www.w3.org/1999/xlink" x="0px" y="0px"
	 width="140.02px" height="140.02px" viewBox="0 0 140.02 140.02" enable-background="new 0 0 140.02 140.02" xml:space="preserve">
<g>
	<path fill="#000000" d="M5.193,44.906c0.219-15.055,5.91-26.862,18.601-34.786c6.221-3.885,14.06-1.292,16.14,5.169
		c0.567,1.756,0.802,3.627,1.117,5.456c1.228,7.098,2.427,14.198,3.634,21.299c0.752,4.424-0.241,8.146-4.184,10.775
		c-1.807,1.207-3.519,2.559-5.258,3.863c-3.119,2.333-4.021,6.026-2.313,9.507c6.303,12.842,14.739,24.104,25.188,33.858
		c2.32,2.167,6.232,2.41,8.827,0.543c2.02-1.45,3.973-2.991,5.979-4.46c3.366-2.459,6.884-2.875,10.688-0.93
		c7.527,3.847,15.104,7.595,22.652,11.401c7.331,3.702,8.82,12.183,2.82,17.735c-8.01,7.418-17.576,10.839-28.569,10.007
		c-13.366-1.01-24.469-7.224-34.39-15.596C29.561,104.77,17.197,87.671,9.579,67.276C6.844,59.955,5.4,52.371,5.193,44.906z"/>
	<path fill="#000000" d="M134.902,70.749c-0.278,1.566-0.96,2.976-2.949,3.182c-2.091,0.216-3.294-0.696-3.92-2.756
		c-1.786-5.908-3.121-12.046-5.673-17.616c-9.543-20.832-25.468-34.813-47.081-42.346c-0.51-0.178-1.038-0.301-1.548-0.49
		c-2.066-0.773-2.988-2.513-2.336-4.381c0.685-1.943,2.291-2.784,4.432-2.154c8.931,2.625,17.175,6.715,24.686,12.169
		c17.821,12.938,29.226,30.15,33.986,51.698C134.684,68.888,134.754,69.743,134.902,70.749z"/>
	<path fill="#000000" d="M116.946,68.302c0.08,2.063-1.082,3.319-2.932,3.596c-1.914,0.287-3.22-0.824-3.762-2.718
		c-1.778-6.221-4.314-12.099-7.903-17.502C95.03,40.656,85.17,32.805,72.855,28.001c-0.575-0.226-1.178-0.411-1.708-0.721
		c-1.66-0.975-2.465-2.359-1.753-4.291c0.657-1.777,2.428-2.619,4.35-1.979c6.677,2.238,12.789,5.586,18.377,9.835
		c11.993,9.125,20.204,20.899,24.408,35.412c0.11,0.372,0.228,0.738,0.309,1.115C116.897,67.681,116.911,67.994,116.946,68.302z"/>
	<path fill="#000000" d="M98.751,66.775c-0.847,0.828-1.707,2.252-2.944,2.746c-1.835,0.735-3.184-0.498-4.119-2.154
		c-1.742-3.099-3.305-6.34-5.388-9.197c-4.229-5.809-9.761-10.144-16.207-13.354c-1.085-0.541-2.358-1.543-2.659-2.587
		c-0.295-1.024,0.191-2.779,0.983-3.466c0.786-0.681,2.615-0.944,3.581-0.505c12.161,5.537,20.961,14.436,26.179,26.792
		C98.329,65.404,98.425,65.783,98.751,66.775z"/>
</g>
<text transform="matrix(1 0 0 1 306.0002 396.0002)" font-family="'MyriadPro-Regular'" font-size="12">PhoneIcon</text>
</svg>
