<?xml version="1.0" encoding="utf-8"?>
<!-- Generator: Adobe Illustrator 16.0.0, SVG Export Plug-In . SVG Version: 6.00 Build 0)  -->
<!DOCTYPE svg PUBLIC "-//W3C//DTD SVG 1.1//EN" "http://www.w3.org/Graphics/SVG/1.1/DTD/svg11.dtd">
<svg version="1.1" id="Layer_1" xmlns="http://www.w3.org/2000/svg" xmlns:xlink="http://www.w3.org/1999/xlink" x="0px" y="0px"
	 width="140.02px" height="140.02px" viewBox="0 0 140.02 140.02" enable-background="new 0 0 140.02 140.02" xml:space="preserve">
<g>
	<path d="M5.193,44.905c0.218-15.054,5.91-26.862,18.6-34.786c6.221-3.884,14.06-1.292,16.14,5.169
		c0.567,1.756,0.802,3.627,1.117,5.456c1.228,7.098,2.427,14.199,3.634,21.299c0.752,4.424-0.241,8.146-4.184,10.776
		c-1.806,1.207-3.518,2.558-5.258,3.863c-3.119,2.333-4.021,6.026-2.312,9.507c6.303,12.841,14.739,24.103,25.187,33.858
		c2.321,2.167,6.233,2.41,8.828,0.543c2.019-1.45,3.972-2.991,5.979-4.46c3.366-2.459,6.884-2.875,10.689-0.93
		c7.527,3.847,15.104,7.595,22.652,11.402c7.331,3.702,8.82,12.182,2.82,17.735c-8.01,7.418-17.576,10.839-28.569,10.007
		c-13.366-1.01-24.469-7.224-34.39-15.596C29.561,104.77,17.197,87.671,9.579,67.276C6.844,59.955,5.4,52.371,5.193,44.905z"/>
	<path d="M134.902,70.749c-0.279,1.567-0.96,2.976-2.95,3.182c-2.09,0.216-3.294-0.696-3.92-2.756
		c-1.786-5.908-3.121-12.046-5.672-17.616c-9.543-20.832-25.468-34.813-47.081-42.346c-0.51-0.178-1.039-0.301-1.548-0.49
		c-2.067-0.774-2.989-2.513-2.336-4.381c0.684-1.943,2.291-2.784,4.431-2.154c8.931,2.625,17.175,6.715,24.686,12.169
		c17.821,12.937,29.226,30.15,33.986,51.698C134.684,68.888,134.754,69.743,134.902,70.749z"/>
	<path d="M116.946,68.302c0.08,2.062-1.082,3.319-2.932,3.596c-1.914,0.287-3.22-0.825-3.762-2.718
		c-1.778-6.221-4.314-12.099-7.903-17.502C95.03,40.656,85.17,32.805,72.855,28.001c-0.575-0.225-1.178-0.411-1.708-0.721
		c-1.66-0.974-2.465-2.359-1.753-4.291c0.657-1.777,2.428-2.619,4.349-1.978c6.677,2.238,12.789,5.586,18.377,9.835
		c11.994,9.125,20.204,20.899,24.409,35.412c0.11,0.372,0.227,0.738,0.308,1.115C116.897,67.681,116.911,67.994,116.946,68.302z"/>
	<path d="M98.751,66.775c-0.846,0.828-1.707,2.252-2.944,2.746c-1.835,0.735-3.184-0.498-4.119-2.155
		c-1.742-3.098-3.305-6.339-5.388-9.197c-4.228-5.808-9.761-10.143-16.207-13.353c-1.085-0.541-2.358-1.543-2.659-2.587
		c-0.295-1.025,0.191-2.78,0.983-3.466c0.786-0.681,2.615-0.944,3.581-0.505c12.161,5.537,20.961,14.436,26.179,26.792
		C98.329,65.404,98.425,65.783,98.751,66.775z"/>
</g>
</svg>
