<?xml version="1.0" encoding="utf-8"?>
<!-- Generator: Adobe Illustrator 16.0.0, SVG Export Plug-In . SVG Version: 6.00 Build 0)  -->
<!DOCTYPE svg PUBLIC "-//W3C//DTD SVG 1.1//EN" "http://www.w3.org/Graphics/SVG/1.1/DTD/svg11.dtd">
<svg version="1.1" id="Layer_1" xmlns="http://www.w3.org/2000/svg" xmlns:xlink="http://www.w3.org/1999/xlink" x="0px" y="0px"
	 width="85.039px" height="85.039px" viewBox="0 0 85.039 85.039" enable-background="new 0 0 85.039 85.039" xml:space="preserve">
<path fill="#989997" d="M63.354,81.055c-6.154-0.191-11.412-1.936-16.471-4.408c-8.598-4.203-15.94-10.066-22.629-16.852
	c-5.59-5.67-10.566-11.785-14.432-18.763C6.82,35.61,4.615,29.908,3.992,23.684c-0.333-3.33,0.432-6.207,3.021-8.604
	c3.162-2.926,6.118-6.073,9.163-9.123c0.259-0.26,0.522-0.518,0.792-0.768c2.098-1.947,4.766-1.548,6.11,0.971
	c2.911,5.449,5.792,10.913,8.665,16.382c1.007,1.919,0.648,4.013-0.963,5.71c-1.149,1.211-2.328,2.398-3.541,3.545
	c-0.749,0.707-0.924,1.447-0.6,2.424c0.941,2.83,2.439,5.363,4.268,7.669c4.439,5.602,9.382,10.709,15.545,14.454
	c1.486,0.904,3.186,1.496,4.844,2.066c0.455,0.156,1.264-0.127,1.656-0.484c1.455-1.328,2.797-2.777,4.191-4.168
	c1.807-1.801,4.33-2.17,6.531-0.879c5.07,2.975,10.125,5.975,15.168,8.99c1.893,1.131,2.625,2.586,2.123,4.303
	c-0.197,0.676-0.588,1.373-1.082,1.873c-3.686,3.73-7.379,7.457-11.156,11.096C67.141,80.672,65.092,81.199,63.354,81.055z"/>
</svg>
