<?xml version="1.0" encoding="utf-8"?>
<!-- Generator: Adobe Illustrator 16.0.0, SVG Export Plug-In . SVG Version: 6.00 Build 0)  -->
<!DOCTYPE svg PUBLIC "-//W3C//DTD SVG 1.1//EN" "http://www.w3.org/Graphics/SVG/1.1/DTD/svg11.dtd">
<svg version="1.1" id="Layer_1" xmlns="http://www.w3.org/2000/svg" xmlns:xlink="http://www.w3.org/1999/xlink" x="0px" y="0px"
	 width="85.039px" height="85.039px" viewBox="0 0 85.039 85.039" enable-background="new 0 0 85.039 85.039" xml:space="preserve">
<g>
	<path fill-rule="evenodd" clip-rule="evenodd" fill="#EAE617" d="M40.333,75.879c0-23.121,0-46.24,0-69.36
		c0.41-0.709,0.824-1.416,1.68-1.68c0.4,0,0.8,0,1.201,0c0.847,0.577,1.43,1.319,1.493,2.387c-0.019,0.398-0.052,0.796-0.052,1.195
		c-0.002,21.931-0.002,43.861,0,65.792c0,0.398,0.024,0.797,0.037,1.197c-0.129,1.225-0.849,1.967-1.959,2.389
		c-0.24,0-0.48,0-0.72,0C41.304,77.289,40.594,76.779,40.333,75.879z"/>
	<path fill-rule="evenodd" clip-rule="evenodd" fill="#EAE617" d="M77.08,43.506c-23.121,0-46.24,0-69.36,0
		c-0.709-0.41-1.416-0.824-1.68-1.679c0-0.4,0-0.801,0-1.201c0.577-0.848,1.319-1.43,2.387-1.494
		c0.398,0.02,0.796,0.053,1.195,0.053c21.931,0.002,43.861,0.002,65.793,0c0.398,0,0.797-0.025,1.197-0.037
		c1.225,0.129,1.967,0.848,2.389,1.959c0,0.24,0,0.48,0,0.721C78.49,42.534,77.98,43.244,77.08,43.506z"/>
</g>
</svg>
