<?xml version="1.0" encoding="utf-8"?>
<!-- Generator: Adobe Illustrator 16.0.0, SVG Export Plug-In . SVG Version: 6.00 Build 0)  -->
<!DOCTYPE svg PUBLIC "-//W3C//DTD SVG 1.1//EN" "http://www.w3.org/Graphics/SVG/1.1/DTD/svg11.dtd">
<svg version="1.1" id="Layer_1" xmlns="http://www.w3.org/2000/svg" xmlns:xlink="http://www.w3.org/1999/xlink" x="0px" y="0px"
	 width="85.039px" height="85.039px" viewBox="0 0 85.039 85.039" enable-background="new 0 0 85.039 85.039" xml:space="preserve">
<g>
	<path fill="#FFFFFF" d="M40.333,75.879c0-23.121,0-46.24,0-69.36c0.41-0.709,0.824-1.416,1.68-1.68c0.4,0,0.8,0,1.201,0
		c0.847,0.577,1.431,1.319,1.493,2.387c-0.02,0.398-0.053,0.796-0.053,1.195c-0.002,21.931-0.002,43.86,0,65.792
		c0,0.398,0.025,0.797,0.037,1.197c-0.129,1.225-0.849,1.967-1.958,2.389c-0.24,0-0.48,0-0.72,0
		C41.304,77.289,40.594,76.779,40.333,75.879z"/>
	<path fill="#FFFFFF" d="M77.08,43.506c-23.121,0-46.24,0-69.36,0c-0.709-0.41-1.416-0.824-1.68-1.679c0-0.4,0-0.801,0-1.201
		c0.577-0.848,1.319-1.43,2.387-1.494c0.398,0.02,0.796,0.053,1.195,0.053c21.931,0.002,43.86,0.002,65.793,0
		c0.397,0,0.797-0.025,1.196-0.037c1.226,0.129,1.968,0.848,2.39,1.959c0,0.24,0,0.48,0,0.721
		C78.49,42.534,77.98,43.244,77.08,43.506z"/>
</g>
</svg>
