<?xml version="1.0" encoding="utf-8"?>
<!-- Generator: Adobe Illustrator 16.0.0, SVG Export Plug-In . SVG Version: 6.00 Build 0)  -->
<!DOCTYPE svg PUBLIC "-//W3C//DTD SVG 1.1//EN" "http://www.w3.org/Graphics/SVG/1.1/DTD/svg11.dtd">
<svg version="1.1" id="Layer_1" xmlns="http://www.w3.org/2000/svg" xmlns:xlink="http://www.w3.org/1999/xlink" x="0px" y="0px"
	 width="85.039px" height="85.039px" viewBox="0 0 85.039 85.039" enable-background="new 0 0 85.039 85.039" xml:space="preserve">
<path fill-rule="evenodd" clip-rule="evenodd" fill="#EAE617" d="M54.545,59.447c-15.223,11.254-34.285,7.781-44.476-4.488
	c-10.397-12.521-9.821-30.525,1.362-42.431C22.25,1.012,40.324-0.599,53.24,8.659c12.713,9.113,18.594,28.978,6.379,45.812
	c2.211,2.107,4.508,4.225,6.727,6.418c4.703,4.654,9.369,9.344,14.045,14.025c2.318,2.324,2.631,4.541,0.916,6.305
	c-1.723,1.771-4.008,1.496-6.297-0.791c-6.242-6.232-12.484-12.467-18.701-18.723C55.66,61.053,55.164,60.248,54.545,59.447z
	 M34.413,58.627c13.414,0.031,24.21-10.65,24.236-23.974c0.027-13.463-10.764-24.367-24.131-24.387
	c-13.173-0.02-24.226,11.01-24.229,24.177C10.285,47.729,21.124,58.594,34.413,58.627z"/>
</svg>
