<?xml version="1.0" encoding="utf-8"?>
<!-- Generator: Adobe Illustrator 16.0.0, SVG Export Plug-In . SVG Version: 6.00 Build 0)  -->
<!DOCTYPE svg PUBLIC "-//W3C//DTD SVG 1.1//EN" "http://www.w3.org/Graphics/SVG/1.1/DTD/svg11.dtd">
<svg version="1.1" id="Layer_1" xmlns="http://www.w3.org/2000/svg" xmlns:xlink="http://www.w3.org/1999/xlink" x="0px" y="0px"
	 width="85.039px" height="85.039px" viewBox="0 0 85.039 85.039" enable-background="new 0 0 85.039 85.039" xml:space="preserve">
<path fill-rule="evenodd" clip-rule="evenodd" fill="#FEB500" d="M43.073,5.821c1.326,0.058,2.271,0.654,2.849,1.827
	c2.661,5.394,5.324,10.787,7.985,16.18c0.172,0.349,0.346,0.698,0.511,1.05c0.701,1.494,1.885,2.274,3.512,2.503
	c4.622,0.65,9.239,1.335,13.86,2.006c1.651,0.24,3.302,0.49,4.957,0.713c1.265,0.171,2.194,0.791,2.647,1.997
	c0.465,1.236,0.24,2.379-0.702,3.317c-1.645,1.638-3.315,3.249-4.976,4.869c-3.011,2.933-6.028,5.86-9.032,8.8
	c-1.036,1.014-1.419,2.257-1.172,3.69c1.099,6.404,2.205,12.81,3.291,19.217c0.214,1.267-0.239,2.313-1.29,3.05
	c-1.016,0.711-2.118,0.782-3.222,0.208c-3.091-1.61-6.173-3.238-9.258-4.859c-2.655-1.396-5.312-2.787-7.965-4.187
	c-1.32-0.695-2.634-0.702-3.955-0.008c-5.624,2.958-11.25,5.913-16.873,8.872c-1.482,0.78-2.75,0.72-3.843-0.223
	c-0.867-0.748-1.229-1.714-1.039-2.835c1.09-6.424,2.201-12.844,3.3-19.265c0.239-1.392-0.124-2.625-1.131-3.611
	c-4.326-4.235-8.668-8.452-13.004-12.677c-0.395-0.385-0.803-0.759-1.17-1.169c-0.847-0.949-1.023-2.046-0.574-3.218
	c0.431-1.126,1.295-1.773,2.476-1.945c6.335-0.926,12.672-1.847,19.01-2.747c1.67-0.237,2.803-1.096,3.543-2.61
	c2.79-5.709,5.616-11.401,8.426-17.101C40.824,6.474,41.776,5.87,43.073,5.821z"/>
</svg>
