<?xml version="1.0" encoding="utf-8"?>
<!-- Generator: Adobe Illustrator 16.0.0, SVG Export Plug-In . SVG Version: 6.00 Build 0)  -->
<!DOCTYPE svg PUBLIC "-//W3C//DTD SVG 1.1//EN" "http://www.w3.org/Graphics/SVG/1.1/DTD/svg11.dtd">
<svg version="1.1" id="Layer_1" xmlns="http://www.w3.org/2000/svg" xmlns:xlink="http://www.w3.org/1999/xlink" x="0px" y="0px"
	 width="85.039px" height="85.039px" viewBox="0 0 85.039 85.039" enable-background="new 0 0 85.039 85.039" xml:space="preserve">
<g>
	<path fill="#FFFFFF" d="M42.507,6.138L42.42,8.136c0.389,0.021,0.58,0.099,0.714,0.183c0.134,0.089,0.265,0.209,0.429,0.531
		c2.66,5.394,5.324,10.787,7.984,16.18c0.174,0.353,0.342,0.688,0.493,1.014c0.474,1.017,1.183,1.897,2.073,2.516
		c0.89,0.623,1.916,0.972,2.972,1.119c4.61,0.648,9.226,1.333,13.851,2.006c1.646,0.238,3.301,0.49,4.979,0.716h-0.001
		c0.384,0.053,0.592,0.151,0.716,0.242c0.121,0.096,0.213,0.188,0.328,0.476c0.082,0.221,0.104,0.383,0.104,0.502
		c-0.002,0.119-0.021,0.201-0.063,0.306c-0.046,0.102-0.125,0.229-0.285,0.391l0.001-0.002c-1.63,1.622-3.296,3.229-4.962,4.854
		l0.002-0.001c-3.01,2.931-6.025,5.86-9.035,8.804c-0.58,0.565-1.057,1.231-1.371,1.971c-0.32,0.736-0.477,1.535-0.476,2.332
		c0,0.388,0.036,0.772,0.104,1.158l-0.002-0.002c1.1,6.405,2.205,12.81,3.291,19.213c0.018,0.101,0.021,0.188,0.021,0.263
		c-0.002,0.192-0.035,0.295-0.096,0.407c-0.062,0.11-0.166,0.244-0.396,0.405h0.001c-0.29,0.197-0.451,0.229-0.609,0.23
		c-0.129-0.002-0.291-0.029-0.543-0.158l0.002,0.002c-3.084-1.608-6.164-3.233-9.252-4.856c-2.654-1.396-5.313-2.787-7.961-4.187
		l-0.028-0.017l0.026,0.017c-0.898-0.479-1.898-0.758-2.917-0.756c-1.008-0.002-2.001,0.272-2.897,0.746l-0.001,0.002
		c-5.624,2.957-11.25,5.912-16.873,8.873l0.001-0.002c-0.477,0.252-0.796,0.311-0.978,0.309c-0.111,0-0.185-0.016-0.276-0.051
		c-0.091-0.035-0.204-0.099-0.353-0.226h0.001c-0.178-0.153-0.265-0.28-0.317-0.388c-0.05-0.108-0.076-0.204-0.078-0.364
		l0.021-0.233c1.09-6.42,2.2-12.838,3.3-19.261c0.065-0.379,0.1-0.76,0.1-1.144c0.001-0.776-0.147-1.562-0.457-2.287
		c-0.308-0.727-0.771-1.389-1.346-1.948c-4.33-4.239-8.674-8.458-13.007-12.682c-0.426-0.413-0.798-0.757-1.074-1.068
		c-0.139-0.156-0.208-0.279-0.249-0.379c-0.04-0.102-0.056-0.183-0.057-0.292c0-0.119,0.023-0.279,0.107-0.499
		c0.106-0.269,0.205-0.377,0.315-0.467c0.113-0.086,0.272-0.168,0.581-0.215l0.001-0.001c6.334-0.925,12.668-1.846,19.002-2.746
		c1.102-0.153,2.154-0.546,3.031-1.2c0.88-0.65,1.55-1.53,2.028-2.512c2.786-5.702,5.611-11.392,8.423-17.095
		c0.168-0.334,0.309-0.465,0.443-0.555c0.137-0.085,0.313-0.158,0.675-0.175L42.507,6.138L42.42,8.136L42.507,6.138L42.431,4.14
		c-0.935,0.032-1.883,0.286-2.693,0.813c-0.813,0.522-1.442,1.289-1.861,2.146c-2.808,5.696-5.636,11.39-8.429,17.107
		c-0.263,0.532-0.528,0.839-0.817,1.056c-0.292,0.213-0.642,0.368-1.209,0.452c-6.343,0.901-12.682,1.823-19.019,2.749h0.001
		c-0.873,0.125-1.735,0.451-2.457,1.013c-0.725,0.559-1.273,1.337-1.599,2.196c-0.234,0.609-0.372,1.262-0.372,1.93
		c-0.001,0.607,0.117,1.222,0.348,1.789c0.229,0.57,0.566,1.09,0.975,1.546c0.458,0.511,0.902,0.913,1.266,1.27
		c4.337,4.226,8.678,8.441,13,12.673c0.234,0.229,0.371,0.44,0.462,0.654c0.089,0.213,0.138,0.438,0.139,0.725
		c0,0.142-0.013,0.296-0.042,0.468c-1.099,6.418-2.21,12.838-3.301,19.267c-0.051,0.299-0.078,0.602-0.078,0.903
		c-0.002,0.722,0.158,1.448,0.473,2.101c0.313,0.651,0.771,1.219,1.309,1.683l0.001,0.002c0.443,0.381,0.946,0.698,1.5,0.916
		c0.552,0.219,1.15,0.329,1.739,0.327c1.005,0,1.956-0.303,2.839-0.768h0.001c5.622-2.959,11.248-5.914,16.872-8.873h-0.001
		c0.418-0.218,0.735-0.285,1.038-0.287c0.305,0.002,0.628,0.071,1.054,0.295V68.29c2.656,1.401,5.313,2.795,7.967,4.188
		c3.084,1.621,6.168,3.248,9.265,4.862h0.001c0.731,0.384,1.551,0.611,2.389,0.609c1.047,0.004,2.066-0.361,2.904-0.953v-0.002
		c0.652-0.455,1.219-1.047,1.607-1.759c0.391-0.711,0.589-1.524,0.586-2.331c0-0.313-0.027-0.621-0.079-0.931
		c-1.087-6.412-2.194-12.817-3.292-19.222v-0.002c-0.031-0.178-0.044-0.336-0.044-0.479c0.001-0.297,0.052-0.524,0.146-0.748
		c0.099-0.224,0.244-0.446,0.498-0.694c3-2.937,6.017-5.863,9.028-8.797l0.001-0.001c1.654-1.615,3.33-3.23,4.989-4.882l0.002-0.002
		c0.467-0.464,0.854-1.006,1.121-1.61s0.403-1.265,0.401-1.918c0-0.658-0.134-1.304-0.36-1.91c-0.341-0.918-0.938-1.738-1.712-2.296
		c-0.771-0.564-1.659-0.86-2.54-0.978h-0.003c-1.633-0.219-3.274-0.468-4.937-0.709c-4.616-0.671-9.235-1.357-13.868-2.008
		c-0.572-0.082-0.951-0.237-1.236-0.436c-0.281-0.203-0.516-0.459-0.743-0.938c-0.179-0.379-0.356-0.74-0.527-1.084
		c-2.661-5.395-5.323-10.788-7.985-16.181c-0.414-0.851-1.045-1.615-1.858-2.132c-0.813-0.522-1.758-0.771-2.695-0.808l-0.082-0.003
		L42.431,4.14L42.507,6.138z"/>
</g>
</svg>
