<?xml version="1.0" encoding="utf-8"?>
<!-- Generator: Adobe Illustrator 16.0.0, SVG Export Plug-In . SVG Version: 6.00 Build 0)  -->
<!DOCTYPE svg PUBLIC "-//W3C//DTD SVG 1.1//EN" "http://www.w3.org/Graphics/SVG/1.1/DTD/svg11.dtd">
<svg version="1.1" id="Layer_1" xmlns="http://www.w3.org/2000/svg" xmlns:xlink="http://www.w3.org/1999/xlink" x="0px" y="0px"
	 width="85.039px" height="85.039px" viewBox="0 0 85.039 85.039" enable-background="new 0 0 85.039 85.039" xml:space="preserve">
<path fill-rule="evenodd" clip-rule="evenodd" fill="#989997" d="M45.345,80.219c-1.884,0-3.767,0-5.649,0
	c-0.367-0.097-0.729-0.233-1.102-0.283C23.079,77.867,12.625,69.401,7.2,54.809c-1.08-2.904-1.396-6.093-2.065-9.149
	c0-1.884,0-3.767,0-5.649c0.097-0.37,0.244-0.734,0.282-1.109C6.926,24.089,17.199,11.507,31.483,7.173
	c2.667-0.809,5.471-1.161,8.212-1.724c1.883,0,3.766,0,5.649,0c0.802,0.127,1.608,0.24,2.408,0.384
	c15.624,2.828,25.902,11.797,30.711,26.922c0.743,2.335,0.973,4.832,1.44,7.254c0,1.883,0,3.766,0,5.649
	c-0.127,0.802-0.238,1.609-0.383,2.408c-2.778,15.33-11.469,25.599-26.305,30.484C50.684,79.385,47.973,79.677,45.345,80.219z
	 M42.484,12.849c-16.486,0.042-30.035,13.64-29.949,30.06c0.086,16.449,13.5,29.853,29.935,29.911
	c16.433,0.058,30.027-13.51,30.036-29.977C72.514,26.383,58.926,12.808,42.484,12.849z"/>
<path fill-rule="evenodd" clip-rule="evenodd" fill="#989997" d="M44.352,35.056c0,2.377,0.069,4.757-0.029,7.13
	c-0.05,1.194,0.307,1.866,1.372,2.474c4.216,2.408,8.369,4.926,12.54,7.411c1.778,1.059,2.336,2.518,1.534,3.949
	c-0.817,1.456-2.332,1.705-4.163,0.614c-4.883-2.909-9.741-5.86-14.635-8.752c-1.486-0.878-2.188-2.139-2.193-3.807
	c-0.016-5.583-0.028-11.167,0.006-16.751c0.012-2.022,1.119-3.172,2.847-3.148c1.715,0.024,2.705,1.189,2.716,3.25
	C44.363,29.97,44.352,32.513,44.352,35.056z"/>
</svg>
