<?xml version="1.0" encoding="utf-8"?>
<!-- Generator: Adobe Illustrator 16.0.0, SVG Export Plug-In . SVG Version: 6.00 Build 0)  -->
<!DOCTYPE svg PUBLIC "-//W3C//DTD SVG 1.1//EN" "http://www.w3.org/Graphics/SVG/1.1/DTD/svg11.dtd">
<svg version="1.1" id="Layer_1" xmlns="http://www.w3.org/2000/svg" xmlns:xlink="http://www.w3.org/1999/xlink" x="0px" y="0px"
	 width="85.039px" height="85.039px" viewBox="0 0 85.039 85.039" enable-background="new 0 0 85.039 85.039" xml:space="preserve">
<g>
	<path fill-rule="evenodd" clip-rule="evenodd" fill="#FFFFFF" d="M45.139,76.942c-1.644,0-3.287,0-4.931,0
		c-0.397-0.083-0.792-0.193-1.194-0.246c-14.506-1.9-24.291-9.762-29.291-23.46c-0.969-2.655-1.265-5.555-1.871-8.342
		c0-1.746,0-3.492,0-5.238c0.091-0.395,0.215-0.786,0.268-1.186c1.766-13.274,8.772-22.73,21.014-28.034
		c3.452-1.496,7.37-1.915,11.074-2.828c1.644,0,3.287,0,4.931,0c0.341,0.087,0.677,0.213,1.022,0.258
		c13.626,1.748,23.122,9.064,28.442,21.607c1.389,3.273,1.75,6.981,2.583,10.49c0,1.644,0,3.288,0,4.93
		c-0.088,0.344-0.221,0.683-0.257,1.031C75.484,59.863,65.799,71.54,52.31,75.458C49.973,76.137,47.531,76.457,45.139,76.942z
		 M42.235,14.48c-15.648,0.322-27.641,12.789-27.477,27.958c0.169,15.692,12.98,28.063,28.271,27.628
		c15.338-0.437,27.41-12.639,27.246-28.035C70.107,26.274,57.503,14.464,42.235,14.48z"/>
	<path fill-rule="evenodd" clip-rule="evenodd" fill="#FFFFFF" d="M57.218,56.616c-5.925-3.522-11.654-6.913-17.354-10.351
		c-0.397-0.239-0.832-0.821-0.834-1.248c-0.046-6.514-0.024-13.028-0.012-19.542c0-0.091,0.076-0.182,0.156-0.359
		c1.585,0,3.207,0,5.045,0c0,0.555,0,1.1,0,1.645c0,4.976,0.037,9.952-0.027,14.926c-0.015,1.127,0.361,1.711,1.331,2.268
		c4.353,2.497,8.65,5.09,12.966,7.651c0.433,0.257,0.854,0.534,1.359,0.854C58.941,53.891,58.085,55.245,57.218,56.616z"/>
</g>
</svg>
