<?xml version="1.0" encoding="utf-8"?>
<!-- Generator: Adobe Illustrator 16.0.0, SVG Export Plug-In . SVG Version: 6.00 Build 0)  -->
<!DOCTYPE svg PUBLIC "-//W3C//DTD SVG 1.1//EN" "http://www.w3.org/Graphics/SVG/1.1/DTD/svg11.dtd">
<svg version="1.1" id="Layer_1" xmlns="http://www.w3.org/2000/svg" xmlns:xlink="http://www.w3.org/1999/xlink" x="0px" y="0px"
	 width="85.039px" height="85.039px" viewBox="0 0 85.039 85.039" enable-background="new 0 0 85.039 85.039" xml:space="preserve">
<path fill-rule="evenodd" clip-rule="evenodd" fill="#FFFFFF" d="M42.478,79.949C21.324,79.93,4.059,62.775,4.079,41.423
	C4.099,20.35,21.333,3.064,42.344,3.073c21.5,0.01,38.637,17.154,38.615,38.63C80.937,62.787,63.671,79.949,42.478,79.949z
	 M42.553,77.871c19.923,0.043,36.471-16.27,36.327-36.625C78.738,21.32,62.563,5.245,42.693,5.149
	C22.438,5.052,5.666,21.649,6.167,42.465C6.631,61.789,22.45,77.859,42.553,77.871z"/>
<path fill-rule="evenodd" clip-rule="evenodd" fill="#FFFFFF" d="M-60.368,105.364c0.127-0.195-0.192-0.519,0.204-0.58
	c0.083-0.014,0.281,0.2,0.289,0.318C-59.857,105.386-60.046,105.472-60.368,105.364z"/>
<path fill-rule="evenodd" clip-rule="evenodd" fill="#FFFFFF" d="M42.525,18.869c6.683,0.05,11.831,5.301,11.727,12.049
	c-0.099,6.353-5.486,11.576-12,11.429c-6.312-0.144-11.589-5.362-11.483-12.04C30.87,24.037,36.19,18.822,42.525,18.869z
	 M42.601,20.957c-5.191-0.07-9.628,4.087-9.734,9.453c-0.111,5.625,4.538,9.882,9.703,9.853c5.077-0.028,9.688-4.201,9.611-9.875
	C52.111,25.21,47.761,20.964,42.601,20.957z"/>
<path fill-rule="evenodd" clip-rule="evenodd" fill="#FFFFFF" d="M23.408,63.037c0.123-3.129,0.904-6.084,2.494-8.783
	c2.978-5.059,7.337-8.258,13.125-9.348c4.858-0.916,9.452-0.055,13.636,2.594c4.731,2.994,7.618,7.297,8.662,12.803
	c0.2,1.053,0.238,2.141,0.3,3.215c0.044,0.756-0.412,1.23-1.063,1.217c-0.595-0.014-0.992-0.496-1.01-1.205
	c-0.14-5.539-2.392-10.025-6.764-13.416c-2.736-2.123-5.868-3.25-9.327-3.422c-8.056-0.402-15.133,4.658-17.343,12.387
	c-0.423,1.48-0.633,2.994-0.633,4.535c0,0.596-0.346,1.01-0.892,1.105c-0.468,0.084-0.967-0.217-1.128-0.689
	c-0.038-0.111-0.05-0.234-0.054-0.354C23.402,63.465,23.408,63.252,23.408,63.037z"/>
</svg>
