<?xml version="1.0" encoding="utf-8"?>
<!-- Generator: Adobe Illustrator 16.0.0, SVG Export Plug-In . SVG Version: 6.00 Build 0)  -->
<!DOCTYPE svg PUBLIC "-//W3C//DTD SVG 1.1//EN" "http://www.w3.org/Graphics/SVG/1.1/DTD/svg11.dtd">
<svg version="1.1" id="Layer_1" xmlns="http://www.w3.org/2000/svg" xmlns:xlink="http://www.w3.org/1999/xlink" x="0px" y="0px"
	 width="85.039px" height="85.039px" viewBox="0 0 85.039 85.039" enable-background="new 0 0 85.039 85.039" xml:space="preserve">
<g>
	<path fill-rule="evenodd" clip-rule="evenodd" fill="#5D5D5D" d="M42.449,69.23c-9.965,0-19.931,0.018-29.896-0.006
		c-5.095-0.014-8.972-3.383-9.729-8.391c-0.076-0.504-0.08-1.021-0.08-1.535C2.741,48.111,2.738,36.925,2.742,25.738
		c0.003-5.728,4.197-9.932,9.922-9.932c19.834-0.005,39.669-0.005,59.505-0.003c5.91,0.003,10.038,4.039,10.105,9.946
		c0.048,4.246,0.008,8.488,0.008,12.731c0.003,6.912,0.02,13.824-0.003,20.734c-0.017,5.1-3.205,9.016-8.015,9.875
		c-0.72,0.129-1.468,0.135-2.208,0.135C62.188,69.232,52.319,69.23,42.449,69.23z M76.002,40.355c-22.378,0-44.626,0-66.974,0
		c0,0.412,0,0.756,0,1.104c0,5.912,0,11.826,0,17.738c0,2.609,1.15,3.77,3.751,3.77c19.762,0,39.526,0,59.288-0.002
		c2.813,0,3.935-1.119,3.935-3.893c0-4.691,0-9.385,0-14.076C76.002,43.488,76.002,41.981,76.002,40.355z M75.856,30.62
		c0.062-0.115,0.112-0.168,0.115-0.224C75.985,28.854,76,27.31,76,25.769c-0.003-2.485-1.186-3.668-3.657-3.668
		c-19.571,0-39.143,0-58.715,0c-0.546,0-1.094-0.017-1.639,0.008c-1.473,0.07-2.808,1.157-2.894,2.609
		c-0.116,1.945-0.029,3.901-0.029,5.902C31.386,30.62,53.637,30.62,75.856,30.62z"/>
	<path fill-rule="evenodd" clip-rule="evenodd" fill="#5D5D5D" d="M59.696,56.197c-3.764,2.818-7.522,2.742-10.146-0.199
		c-2.304-2.582-2.248-6.609,0.125-9.146c2.641-2.828,6.349-2.846,10.018-0.049c3.682-2.793,7.389-2.773,10.009,0.053
		c2.416,2.602,2.444,6.609,0.073,9.215C67.161,58.943,63.415,58.99,59.696,56.197z"/>
	<path fill-rule="evenodd" clip-rule="evenodd" fill="#5D5D5D" d="M13.533,58.23c0-1.814,0-3.535,0-5.324c3.327,0,6.614,0,9.968,0
		c0,1.764,0,3.51,0,5.324C20.212,58.23,16.925,58.23,13.533,58.23z"/>
	<path fill-rule="evenodd" clip-rule="evenodd" fill="#5D5D5D" d="M38.578,58.248c-3.366,0-6.626,0-9.949,0c0-1.797,0-3.543,0-5.348
		c3.315,0,6.6,0,9.949,0C38.578,54.684,38.578,56.43,38.578,58.248z"/>
</g>
</svg>
